<?xml version="1.0" standalone="no"?>
<!DOCTYPE svg PUBLIC "-//W3C//DTD SVG 1.1//EN" "http://www.w3.org/Graphics/SVG/1.1/DTD/svg11.dtd" >
<svg xmlns="http://www.w3.org/2000/svg" xmlns:xlink="http://www.w3.org/1999/xlink" version="1.1">
<metadata>
Created by FontForge 20170731 at Fri Apr 20 17:44:12 2007
 By Aleksey,,,
Copyright (c) Ray Larabie, 1999. All rights reserved. Updated in 2004. Do no distribute. Report piracy to piracy@typodermic.com
</metadata>
<defs>
<font id="Nasalization-Italic" horiz-adv-x="561" >
  <font-face 
    font-family="Nasalization"
    font-weight="400"
    font-style="italic"
    font-stretch="normal"
    units-per-em="1000"
    panose-1="2 11 5 0 0 0 0 0 0 0"
    ascent="800"
    descent="-200"
    x-height="628"
    cap-height="628"
    bbox="-65 -201 1216 801"
    underline-thickness="10"
    underline-position="-80"
    unicode-range="U+0020-2122"
  />
<missing-glyph horiz-adv-x="475" 
 />
    <glyph glyph-name=".notdef" horiz-adv-x="475" 
 />
    <glyph glyph-name=".null" horiz-adv-x="0" 
 />
    <glyph glyph-name="nonmarkingreturn" horiz-adv-x="475" 
 />
    <glyph glyph-name="visiblespace" unicode=" " horiz-adv-x="261" 
 />
    <glyph glyph-name="visiblespace" unicode="&#xa0;" horiz-adv-x="261" 
 />
    <glyph glyph-name="exclam" unicode="!" horiz-adv-x="191" 
d="M62 111h104l-18 -111h-104zM148 628h105l-69 -411h-104z" />
    <glyph glyph-name="quotedbl" unicode="&#x22;" horiz-adv-x="318" 
d="M114 460l6 143l21 125h111l-21 -125l-42 -143h-75zM277 460l6 143l21 125h112l-21 -125l-43 -143h-75z" />
    <glyph glyph-name="numbersign" unicode="#" horiz-adv-x="482" 
d="M336 222l19 117h-112l-19 -117h112zM399 73h-88l9 55h-112l-9 -55h-90l10 55h-57l16 94h57l19 117h-57l16 94h57l10 57h89l-10 -57h112l10 57h88l-9 -57h49l-16 -94h-49l-19 -117h49l-16 -94h-49z" />
    <glyph glyph-name="dollar" unicode="$" horiz-adv-x="443" 
d="M339 216q0 3 0.5 5.5t0.5 4.5q0 17 -11 24t-30 10l-15 -90q21 2 35.5 11t19.5 35zM219 425q-1 -5 -1 -8v-7q0 -21 11.5 -29.5t33.5 -9.5l18 107q-54 -3 -62 -53zM74 60l18 110h137l16 91q-67 5 -101 32.5t-34 86.5q0 106 51.5 154.5t137.5 52.5l7 41h55l-7 -40h112
l-19 -110h-111l-18 -109q60 -3 94.5 -28.5t34.5 -84.5q0 -53 -14 -89t-38.5 -58.5t-57.5 -34t-71 -14.5l-10 -60h-55l10 60h-137z" />
    <glyph glyph-name="percent" unicode="%" horiz-adv-x="901" 
d="M318 628q74 0 117.5 -36t43.5 -92q0 -39 -18 -71t-47.5 -54.5t-67.5 -35t-78 -12.5q-67 0 -107.5 33t-40.5 89q0 41 16.5 74t44.5 56.5t63.5 36t73.5 12.5zM308 519q-36 0 -56.5 -11t-20.5 -32q0 -17 18 -26t45 -9q12 0 25.5 3t25 8t18.5 13t7 19q0 14 -20.5 24.5
t-41.5 10.5zM672 190q-80 0 -80 -44q0 -33 66 -33q76 0 76 46q0 31 -62 31zM753 628l-450 -628h-94l455 628h89zM682 300q35 0 64.5 -9t51 -26t33.5 -40.5t12 -52.5q0 -44 -23 -79.5t-61 -58.5h1q-56 -35 -128 -35q-67 0 -107.5 34t-40.5 90q0 40 17 73t45 56t63.5 35.5
t72.5 12.5z" />
    <glyph glyph-name="ampersand" unicode="&#x26;" horiz-adv-x="573" 
d="M259 261q-17 0 -31.5 -8t-25.5 -20.5t-17.5 -29t-6.5 -33.5q0 -27 15 -43.5t42 -16.5h119l26 151h-121zM573 261h-88l-26 -151h88l-18 -110h-297q-45 0 -75.5 12t-49.5 32t-27.5 47t-8.5 56q0 46 21 93t59 76q-17 17 -26.5 44t-9.5 55q0 51 18 90.5t48 67t70 41.5t85 14
h71l-18 -110h-87q-15 0 -30 -7.5t-26 -19.5t-18 -27.5t-7 -31.5q0 -26 15 -43.5t42 -17.5h313z" />
    <glyph glyph-name="quotesingle" unicode="'" horiz-adv-x="149" 
d="M114 460l6 143l21 125h111l-21 -125l-42 -143h-75z" />
    <glyph glyph-name="parenleft" unicode="(" horiz-adv-x="355" 
d="M370 608q-26 0 -49.5 -9t-42.5 -25t-32 -37.5t-17 -46.5l-59 -352q-1 -5 -1.5 -10.5t-0.5 -10.5q0 -43 27.5 -70t75.5 -27h25l-18 -110h-23q-38 0 -73 11t-61.5 34t-42.5 58.5t-16 83.5q0 11 1 23t3 26l57 336q10 61 37 105.5t64 73.5t80 43t85 14h24l-18 -110h-25z" />
    <glyph glyph-name="parenright" unicode=")" horiz-adv-x="355" 
d="M69 20q26 0 49.5 9t42.5 24.5t31.5 37t17.5 47.5l59 352q1 5 1.5 10t0.5 10q0 43 -28 70.5t-75 27.5h-26l19 110h23q37 0 71.5 -11t61 -34t42.5 -57.5t16 -82.5q0 -12 -1 -24.5t-3 -26.5l-56 -336q-10 -61 -37 -105.5t-64 -73.5t-80 -43t-85 -14h-23l18 110h25z" />
    <glyph glyph-name="asterisk" unicode="*" horiz-adv-x="413" 
d="M387 388l-78 -40l-29 89l-59 -89l-65 40l67 102h-109l14 86h108l-32 105l77 39l31 -94l60 94l66 -40l-68 -104h105l-14 -86h-108z" />
    <glyph glyph-name="plus" unicode="+" horiz-adv-x="498" 
d="M304 107h-105l26 153h-153l19 112h153l25 148h104l-24 -148h154l-19 -112h-154z" />
    <glyph glyph-name="comma" unicode="," horiz-adv-x="202" 
d="M167 1q-6 -35 -23 -64t-41.5 -49.5t-55 -32t-63.5 -11.5l17 110q23 0 37 12t17 29l19 116h111z" />
    <glyph glyph-name="hyphen" unicode="-" horiz-adv-x="306" 
d="M96 372h243l-19 -112h-243z" />
    <glyph glyph-name="period" unicode="." horiz-adv-x="169" 
d="M47 111h111l-18 -111h-111z" />
    <glyph glyph-name="slash" unicode="/" horiz-adv-x="407" 
d="M-7 0l454 628h71l-452 -628h-73z" />
    <glyph glyph-name="zero" unicode="0" horiz-adv-x="617" 
d="M356 110q139 0 172 194l2 8q3 21 5 39.5t2 35.5q0 131 -113 131h-58q-71 0 -114.5 -50t-60.5 -156l-2 -8q-6 -38 -6 -67q0 -127 113 -127h60zM415 628q228 0 228 -223q0 -20 -2 -42.5t-6 -46.5v-3q-54 -313 -323 -313h-7q-228 0 -228 220q0 42 9 93v3q57 312 324 312h5z
" />
    <glyph glyph-name="one" unicode="1" horiz-adv-x="279" 
d="M128 628q35 0 68 -11t58 -32.5t40 -54t15 -74.5q0 -19 -3 -40l-69 -416h-105l69 417q1 6 1.5 11.5t0.5 10.5q0 40 -26 59.5t-67 19.5z" />
    <glyph glyph-name="two" unicode="2" horiz-adv-x="661" 
d="M573 628q63 0 93 -30t30 -80q0 -57 -28.5 -103.5t-94.5 -74.5l-352 -150q-17 -7 -28 -19.5t-13 -27.5l-6 -33h443l-19 -110h-547l24 144q3 15 9.5 34.5t20 39t35.5 38t55 32.5l354 150q20 9 31 25t11 30q0 11 -7 18t-26 7h-398l18 110h395z" />
    <glyph glyph-name="three" unicode="3" 
d="M445 628q85 0 122.5 -40t37.5 -103q0 -19 -4 -42t-14.5 -46t-27.5 -44.5t-44 -36.5q25 -17 35.5 -44t10.5 -57q0 -38 -13.5 -76.5t-41.5 -69t-69.5 -50t-96.5 -19.5h-297l18 110h312q16 0 31 7t26.5 19t18.5 28.5t7 36.5q0 25 -15.5 42.5t-40.5 17.5h-141l18 110h140
q16 0 31 7t26 18.5t18 27t7 33.5q0 25 -15.5 43t-40.5 18h-314l18 110h298z" />
    <glyph glyph-name="four" unicode="4" horiz-adv-x="537" 
d="M201 302q-8 -9 -13 -19.5t-5 -21.5q0 -16 12 -25.5t38 -9.5h192l42 252q1 4 1 7.5v6.5q0 26 -25 26h-26q-25 0 -38.5 -6.5t-29.5 -26.5zM407 116h-225q-25 0 -45 10t-33.5 26.5t-20.5 38.5t-7 47q0 61 42 115l150 191q65 82 172 84h32q58 0 83 -21t25 -70
q0 -11 -1.5 -24.5t-3.5 -28.5l-81 -484h-106z" />
    <glyph glyph-name="five" unicode="5" horiz-adv-x="573" 
d="M594 518h-359l-25 -147h212q70 0 106 -37.5t36 -102.5q0 -47 -15.5 -88.5t-43 -73.5t-65 -50.5t-80.5 -18.5h-317l18 111h317q16 0 30 8t25 21t17.5 29t6.5 32q0 24 -14.5 42t-38.5 18h-318l61 367h465z" />
    <glyph glyph-name="six" unicode="6" horiz-adv-x="607" 
d="M184 261q-1 -8 -1 -14.5v-13.5q0 -125 113 -123l126 1q15 0 29 7.5t25 20t17.5 28.5t6.5 33q0 26 -14 43.5t-39 17.5h-263zM305 0q-228 0 -228 220q0 42 9 93v3q57 312 324 312h218l-18 -110h-244q-121 0 -163 -147h267q31 0 56 -12.5t43 -33t27.5 -48t9.5 -57.5v-14
t-2 -15l-2 -10q-6 -34 -24.5 -66.5t-45 -58t-59 -41t-65.5 -15.5h-103z" />
    <glyph glyph-name="seven" unicode="7" horiz-adv-x="626" 
d="M576 628q52 0 78.5 -31t26.5 -74q0 -35 -15.5 -69t-47.5 -65l-407 -389h-141l493 472q12 10 15 23q0 9 -4 16t-15 7h-438l18 110h437z" />
    <glyph glyph-name="eight" unicode="8" horiz-adv-x="590" 
d="M222 392q9 -10 19.5 -15.5t26.5 -5.5h178q16 0 31 7t26 19t17.5 27.5t6.5 33.5q0 25 -15.5 42.5t-40.5 17.5h-179q-16 0 -30.5 -7.5t-26 -19.5t-18.5 -28t-7 -33q0 -22 12 -38zM455 131q12 13 21 30.5t9 38.5q0 25 -15.5 43t-41.5 18h-179q-17 0 -31.5 -8t-26 -20.5
t-18 -29t-6.5 -33.5q0 -26 15 -43t42 -17h178q29 0 53 21zM473 628q44 0 74.5 -10.5t50 -29.5t28.5 -45t9 -57q0 -19 -4 -42t-14.5 -46.5t-28.5 -45t-45 -36.5q24 -17 35.5 -44t11.5 -56q0 -38 -13.5 -76.5t-41 -69.5t-69 -50.5t-97.5 -19.5h-148q-44 0 -75 12t-50 32
t-27.5 46.5t-8.5 55.5q0 22 5 46.5t15.5 47t28 42.5t41.5 34q-25 17 -35 44t-10 55q0 44 14.5 83t42.5 68t69.5 45.5t94.5 16.5h147z" />
    <glyph glyph-name="nine" unicode="9" horiz-adv-x="609" 
d="M530 371v17q0 129 -113 129h-125q-15 0 -29.5 -8t-25.5 -21t-17.5 -29.5t-6.5 -32.5q0 -24 14.5 -39.5t39.5 -15.5h263zM409 628q226 0 226 -220q0 -21 -1.5 -44t-6.5 -49v-3q-56 -312 -324 -312h-218l19 110h244q63 0 101 36.5t62 114.5h-267q-32 0 -57.5 11.5
t-43.5 31.5t-28 46t-10 56q0 14 3 29l2 10q6 34 25 67t46 58.5t59.5 41.5t65.5 16h103z" />
    <glyph glyph-name="colon" unicode=":" horiz-adv-x="178" 
d="M52 110h111l-18 -110h-111zM96 371h111l-18 -110h-111z" />
    <glyph glyph-name="semicolon" unicode=";" horiz-adv-x="184" 
d="M99 371h111l-19 -111h-111zM148 1q-6 -35 -23 -64t-41.5 -49.5t-55 -32t-63.5 -11.5l18 110q23 0 36.5 12t16.5 29l19 116h111z" />
    <glyph glyph-name="less" unicode="&#x3c;" horiz-adv-x="430" 
d="M370 394h89l-26 -155h-89l-20 -115l-214 154q-18 13 -18 28q0 21 30 40l267 165z" />
    <glyph glyph-name="equal" unicode="=" horiz-adv-x="403" 
d="M88 277h295l-19 -114h-295zM121 468h294l-19 -114h-294z" />
    <glyph glyph-name="greater" unicode="&#x3e;" horiz-adv-x="430" 
d="M217 511l212 -165q16 -13 16 -30q0 -22 -27 -38l-267 -154l20 115h-89l25 155h90z" />
    <glyph glyph-name="question" unicode="?" horiz-adv-x="581" 
d="M161 112h111l-18 -112h-111zM464 628q61 0 99 -37.5t38 -106.5q0 -20 -3 -41v-6q-6 -36 -24.5 -68t-44.5 -56t-58.5 -38t-67.5 -14h-23q-29 0 -55 -21.5t-38 -54.5h-108l2 14q4 33 24.5 64t49 55t61.5 38.5t63 14.5h35q15 0 29.5 7t26 19t18.5 27.5t7 33.5
q0 25 -15.5 42.5t-40.5 17.5h-313l18 110h320z" />
    <glyph glyph-name="at" unicode="@" horiz-adv-x="679" 
d="M404 266q4 0 10.5 2t12.5 9.5t10.5 23.5t4.5 45t-19 29h-46q-17 0 -29.5 -21.5t-12.5 -62.5q0 -17 5.5 -21t16.5 -4h47zM425 225q-15 -12 -49 -12h-27q-64 0 -64 72t28.5 108t72.5 36h26q30 0 45 -12l2 12h48l-36 -216h-48zM423 574q-221 0 -263 -253v-2
q-4 -21 -5.5 -40.5t-1.5 -36.5q0 -177 183 -177h39q220 0 262 254v2q6 39 6 73q0 180 -183 180h-37zM468 627q113 0 169.5 -57.5t56.5 -168.5q0 -38 -6 -80v-2q-51 -307 -321 -307h-39q-227 0 -227 217q0 20 1.5 42.5t6.5 47.5v2q26 151 109 228.5t213 77.5h37z" />
    <glyph glyph-name="A" unicode="A" horiz-adv-x="642" 
d="M511 0l-83 500q-2 9 -7.5 13t-12.5 4q-18 0 -26 -17l-251 -500h-111l276 547q20 41 54 61t76 20q40 0 67.5 -20t34.5 -61l94 -547h-111z" />
    <glyph glyph-name="B" unicode="B" 
d="M445 628q43 0 74 -10.5t50 -29.5t28 -45t9 -56q0 -20 -4 -43t-14.5 -46.5t-28 -45t-44.5 -36.5q25 -17 35.5 -44t10.5 -57q0 -38 -13.5 -76.5t-41.5 -69t-69.5 -50t-96.5 -19.5h-297l18 110h312q16 0 31 7t26.5 19t18.5 28.5t7 36.5q0 25 -15.5 42.5t-40.5 17.5h-314
l19 110h312q16 0 31 7t26 18.5t18 27t7 33.5q0 25 -15.5 43t-40.5 18h-314l18 110h298z" />
    <glyph glyph-name="C" unicode="C" 
d="M305 0q-228 0 -228 220q0 42 9 93v3q57 312 324 312h218l-18 -110h-244q-71 0 -114.5 -50t-60.5 -156q-7 -38 -7 -72q0 -130 112 -130h245l-19 -110h-217z" />
    <glyph glyph-name="D" unicode="D" horiz-adv-x="594" 
d="M165 110h167q72 0 115 50t60 156q3 20 5 38t2 34q0 130 -112 130h-168zM393 628q227 0 227 -220q0 -21 -1.5 -44t-6.5 -49v-3q-56 -312 -324 -312h-245l104 628h246z" />
    <glyph glyph-name="E" unicode="E" 
d="M605 518h-313q-16 0 -30.5 -7.5t-26 -19.5t-18 -28t-6.5 -33q0 -26 15 -42.5t42 -16.5h312l-18 -110h-313q-17 0 -31.5 -8t-26 -20.5t-18 -29t-6.5 -33.5q0 -27 15 -43.5t42 -16.5h313l-18 -110h-298q-44 0 -75 12t-50 32t-27.5 46.5t-8.5 55.5q0 22 5 46.5t15.5 47
t28 42.5t41.5 34q-25 17 -35 44t-10 55q0 46 15.5 85t44.5 67.5t70 44.5t91 16h297z" />
    <glyph glyph-name="F" unicode="F" horiz-adv-x="531" 
d="M584 518h-195q-69 0 -117 -37.5t-63 -109.5h351l-19 -110h-350l-44 -261h-104l59 356q10 63 35 113t64 85.5t91.5 54.5t117.5 19h192z" />
    <glyph glyph-name="G" unicode="G" horiz-adv-x="607" 
d="M305 0q-228 0 -228 220q0 42 9 93v3q57 312 324 312h218l-18 -110h-244q-71 0 -114.5 -50t-60.5 -156q-7 -38 -7 -72q0 -130 112 -130h126q15 0 29 7.5t25 20.5t17.5 29t6.5 33q0 26 -14 43.5t-39 17.5h-95l18 110h100q30 0 55 -11t42.5 -30.5t27.5 -47t10 -61.5
q0 -39 -15.5 -78t-42.5 -71t-63 -52t-76 -20h-103z" />
    <glyph glyph-name="H" unicode="H" horiz-adv-x="571" 
d="M467 261h-276l-44 -261h-104l104 628h105l-43 -257h276l43 257h105l-105 -628h-104z" />
    <glyph glyph-name="I" unicode="I" horiz-adv-x="190" 
d="M147 628h105l-105 -628h-104z" />
    <glyph glyph-name="J" unicode="J" horiz-adv-x="499" 
d="M51 110h163q74 0 121.5 42.5t60.5 118.5l60 357h104l-59 -356q-11 -63 -35.5 -113t-63.5 -85.5t-91 -54.5t-118 -19h-160z" />
    <glyph glyph-name="K" unicode="K" horiz-adv-x="585" 
d="M147 0h-104l104 628h105l-33 -200l429 206l-21 -126l-430 -194l364 -198l-20 -122l-361 207z" />
    <glyph glyph-name="L" unicode="L" horiz-adv-x="518" 
d="M306 0q-114 0 -169.5 55t-55.5 152q0 30 6 65l60 356h105l-60 -357q-3 -21 -3 -38q0 -59 34 -91t98 -32h182l-18 -110h-179z" />
    <glyph glyph-name="M" unicode="M" horiz-adv-x="1019" 
d="M289 532q23 45 64 71.5t87 26.5q57 0 93.5 -33.5t36.5 -90.5q0 -15 -3 -30l-52 -317q-1 -5 -1.5 -9.5t-0.5 -8.5q0 -37 37 -37q14 0 24 10t19 29l184 389q22 46 64 72t87 26q58 0 94 -33t36 -89q0 -16 -3 -32l-78 -476h-112l77 464q1 5 1.5 9.5t0.5 8.5q0 37 -37 37
q-14 0 -23.5 -10t-18.5 -29l-186 -389q-20 -46 -62 -72t-88 -26q-58 0 -94.5 33.5t-36.5 91.5q0 14 3 29l53 317q1 5 1.5 9t0.5 9q0 37 -37 37q-14 0 -24 -10t-19 -29l-238 -480h-118z" />
    <glyph glyph-name="N" unicode="N" horiz-adv-x="685" 
d="M667 149q-6 -35 -22.5 -63.5t-40.5 -48.5t-54 -31t-63 -11q-46 0 -78 26t-39 72l-56 387q-3 39 -29 39q-21 0 -35 -13.5t-19 -41.5l-77 -464h-111l79 476q6 35 22.5 63.5t41 48.5t54.5 31t62 11q46 0 77.5 -26.5t38.5 -71.5l56 -387q3 -19 9.5 -29t20.5 -10q21 0 35 13.5
t19 41.5l78 467h111z" />
    <glyph glyph-name="O" unicode="O" horiz-adv-x="657" 
d="M366 518q-71 0 -114.5 -50t-60.5 -156q-7 -38 -7 -72q0 -130 112 -130h101q38 0 71 17.5t57.5 52t38.5 86.5t14 121q0 131 -113 131h-99zM456 628q227 0 227 -221q0 -21 -2 -43.5t-6 -47.5v-3q-52 -313 -323 -313h-47q-228 0 -228 220q0 42 9 93v3q57 312 324 312h46z
" />
    <glyph glyph-name="P" unicode="P" horiz-adv-x="562" 
d="M75 188q15 90 73 136.5t145 46.5h125q15 0 30 7t26.5 18.5t18.5 27t7 33.5q0 25 -15.5 43t-40.5 18h-314l18 110h298q43 0 73 -11t49.5 -30.5t28.5 -46t9 -57.5q0 -36 -12.5 -75.5t-39 -72t-68.5 -53.5t-101 -21h-129q-29 0 -50.5 -22.5t-26.5 -52.5l-31 -186h-104z" />
    <glyph glyph-name="Q" unicode="Q" horiz-adv-x="665" 
d="M366 518q-71 0 -114.5 -50t-60.5 -156l-2 -8q-6 -38 -6 -67q0 -127 113 -127h117l-102 56l20 123l195 -108q29 45 43 123l2 8q3 21 5 39.5t2 35.5q0 131 -113 131h-99zM456 628q112 0 170 -54.5t58 -165.5q0 -38 -6 -76.5t-15.5 -75t-22.5 -68.5t-27 -55l37 -20l-20 -119
l-101 54q-36 -23 -79.5 -35.5t-97.5 -12.5h-47q-228 0 -228 220q0 42 9 93v3q57 312 324 312h46z" />
    <glyph glyph-name="R" unicode="R" horiz-adv-x="572" 
d="M75 188q15 90 73 136.5t145 46.5h125q15 0 30 7t26.5 18.5t18.5 27t7 33.5q0 25 -15.5 43t-40.5 18h-314l18 110h298q43 0 73 -11t49.5 -30.5t28.5 -46t9 -57.5q0 -36 -12.5 -75.5t-39 -72t-68.5 -53.5t-101 -21h-121l297 -149l-20 -122l-363 187l-30 -177h-104z" />
    <glyph glyph-name="S" unicode="S" horiz-adv-x="593" 
d="M589 184q-15 -91 -72.5 -137.5t-146.5 -46.5h-306l18 110h326q15 0 29 7t25 19t17.5 28.5t6.5 34.5q0 26 -14 44t-39 18h-168q-45 0 -76 12.5t-49.5 33t-27 47t-8.5 54.5q0 43 14 83t42 70.5t69.5 48.5t96.5 18h297l-18 -110h-313q-16 0 -30.5 -7.5t-26 -19.5t-18 -28
t-6.5 -32q0 -26 15.5 -43t41.5 -17h165q76 0 118.5 -36t42.5 -105q0 -10 -1 -20.5t-3 -21.5z" />
    <glyph glyph-name="T" unicode="T" horiz-adv-x="438" 
d="M275 0h-104l86 518h-147l18 110h391l-18 -110h-139z" />
    <glyph glyph-name="U" unicode="U" horiz-adv-x="587" 
d="M583 238q-9 -54 -31.5 -97.5t-58.5 -75t-86 -48.5t-113 -17q-108 0 -162 51.5t-54 136.5q0 26 4 49l65 391h105l-65 -389q-2 -6 -2 -12v-12q0 -47 33 -76t95 -29h3q71 0 112 36t52 93l64 389h105z" />
    <glyph glyph-name="V" unicode="V" horiz-adv-x="642" 
d="M340 107q5 0 12.5 4t12.5 15l251 502h111l-278 -552q-20 -41 -54 -60.5t-75 -19.5t-68 20t-34 60l-94 552h112l83 -503q1 -10 6 -14t11 -4h4z" />
    <glyph glyph-name="W" unicode="W" horiz-adv-x="1019" 
d="M321 148q3 -19 9.5 -29t20.5 -10q44 0 53 55l53 313q6 35 22.5 63.5t40.5 48.5t53.5 31t62.5 11q47 0 78.5 -26t38.5 -72l56 -385q2 -19 8.5 -29t21.5 -10q44 0 53 55l78 464h111l-80 -476q-6 -35 -22.5 -63.5t-40.5 -48.5t-54 -31t-62 -11q-46 0 -78.5 26t-39.5 72
l-55 385q-3 19 -9.5 29t-20.5 10q-21 0 -35 -13.5t-19 -41.5l-52 -313q-6 -35 -22.5 -63.5t-40.5 -48.5t-54 -31t-63 -11q-45 0 -77 26.5t-40 71.5l-92 532h118z" />
    <glyph glyph-name="X" unicode="X" horiz-adv-x="576" 
d="M560 0h-126l-104 254l-188 -254h-126l245 322l-140 306h124l106 -252l189 252h124l-244 -306z" />
    <glyph glyph-name="Y" unicode="Y" horiz-adv-x="576" 
d="M282 278l-162 350h125l106 -252l189 252h125l-277 -343l-48 -285h-104z" />
    <glyph glyph-name="Z" unicode="Z" horiz-adv-x="638" 
d="M536 438q17 7 29.5 21.5t12.5 29.5q0 12 -8 20.5t-26 8.5h-398l18 110h396q62 0 92.5 -30.5t30.5 -81.5q0 -16 -3 -32q-2 -12 -7 -30t-17.5 -38t-35 -40t-60.5 -36l-353 -150q-43 -18 -43 -52q0 -14 10 -21t25 -7h404l-18 -110h-402q-63 0 -93.5 30t-30.5 80q0 15 3.5 38
t16 48.5t36.5 49.5t66 42z" />
    <glyph glyph-name="bracketleft" unicode="[" horiz-adv-x="334" 
d="M225 789h125l-19 -110h-37l-112 -673h37l-20 -113h-124z" />
    <glyph glyph-name="backslash" unicode="\" horiz-adv-x="334" 
d="M138 628l246 -628h-93l-232 628h79z" />
    <glyph glyph-name="bracketright" unicode="]" horiz-adv-x="291" 
d="M72 6h37l112 673h-37l19 110h125l-150 -896h-125z" />
    <glyph glyph-name="underscore" unicode="_" horiz-adv-x="556" 
d="M-13 -81h554l-11 -68h-555z" />
    <glyph glyph-name="grave" unicode="`" horiz-adv-x="211" 
d="M231 771l44 -118h-52l-79 118h87z" />
    <glyph glyph-name="a" unicode="a" horiz-adv-x="642" 
d="M406 518q-14 0 -24 -18l-152 -300h247l-50 299q-2 11 -7 15t-11 4h-3zM175 90l-44 -90h-111l276 548q22 41 55 61t75 20q40 0 68 -20t34 -61l94 -548h-111l-16 90h-320z" />
    <glyph glyph-name="b" unicode="b" 
d="M209 371h208q16 0 31 7t26 18.5t18 27t7 33.5q0 25 -15.5 43t-40.5 18h-209zM165 110h208q34 0 58.5 26.5t24.5 64.5q0 25 -15.5 42.5t-40.5 17.5h-209zM445 628q43 0 74 -10.5t50 -29.5t28 -45t9 -56q0 -20 -4 -43t-14.5 -46.5t-28 -45t-44.5 -36.5q25 -17 35.5 -44
t10.5 -57q0 -38 -13.5 -76.5t-41.5 -69t-69.5 -50t-96.5 -19.5h-297l104 628h298z" />
    <glyph glyph-name="c" unicode="c" 
d="M305 0q-228 0 -228 220q0 42 9 93v3q57 312 324 312h218l-18 -110h-244q-71 0 -114.5 -50t-60.5 -156q-7 -38 -7 -72q0 -130 112 -130h245l-19 -110h-217z" />
    <glyph glyph-name="d" unicode="d" horiz-adv-x="594" 
d="M165 110h167q72 0 115 50t60 156q3 20 5 38t2 34q0 130 -112 130h-168zM393 628q227 0 227 -220q0 -21 -1.5 -44t-6.5 -49q-26 -158 -108 -236.5t-216 -78.5h-245l104 628h246z" />
    <glyph glyph-name="e" unicode="e" 
d="M605 518h-313q-16 0 -30.5 -7.5t-26 -19.5t-18 -28t-6.5 -33q0 -26 15 -42.5t42 -16.5h312l-18 -110h-313q-17 0 -31.5 -8t-26 -20.5t-18 -29t-6.5 -33.5q0 -27 15 -43.5t42 -16.5h313l-18 -110h-298q-44 0 -75 12t-50 32t-27.5 46.5t-8.5 55.5q0 22 5 46.5t15.5 47
t28 42.5t41.5 34q-25 17 -35 44t-10 55q0 44 14.5 83t42.5 68t69.5 45.5t94.5 16.5h297z" />
    <glyph glyph-name="f" unicode="f" horiz-adv-x="531" 
d="M584 518h-195q-69 0 -117 -37.5t-63 -109.5h351l-19 -110h-350l-44 -261h-104l59 356q10 63 35 113t64 85.5t91.5 54.5t117.5 19h192z" />
    <glyph glyph-name="g" unicode="g" horiz-adv-x="607" 
d="M305 0q-228 0 -228 220q0 42 9 93v3q57 312 324 312h218l-18 -110h-244q-71 0 -114.5 -50t-60.5 -156q-7 -38 -7 -72q0 -130 112 -130h126q15 0 29 7.5t25 20.5t17.5 29t6.5 33q0 26 -14 43.5t-39 17.5h-95l18 110h100q31 0 56 -12.5t43 -33t27.5 -48t9.5 -57.5
q0 -47 -18 -87t-46.5 -69t-64 -46t-69.5 -18h-103z" />
    <glyph glyph-name="h" unicode="h" horiz-adv-x="571" 
d="M467 261h-276l-44 -261h-104l104 628h105l-43 -257h276l43 257h105l-105 -628h-104z" />
    <glyph glyph-name="i" unicode="i" horiz-adv-x="190" 
d="M147 628h105l-105 -628h-104z" />
    <glyph glyph-name="j" unicode="j" horiz-adv-x="499" 
d="M51 110h163q74 0 121.5 42.5t60.5 118.5l60 357h104l-59 -356q-11 -63 -35.5 -113t-63.5 -85.5t-91 -54.5t-118 -19h-160z" />
    <glyph glyph-name="k" unicode="k" horiz-adv-x="585" 
d="M147 0h-104l104 628h105l-33 -200l429 206l-21 -126l-430 -194l364 -198l-20 -122l-361 207z" />
    <glyph glyph-name="l" unicode="l" horiz-adv-x="518" 
d="M306 0q-114 0 -169.5 55t-55.5 152q0 30 6 65l60 356h105l-60 -357q-3 -21 -3 -38q0 -59 34 -91t98 -32h182l-18 -110h-179z" />
    <glyph glyph-name="m" unicode="m" horiz-adv-x="1019" 
d="M47 0l78 476q6 35 23 63.5t41 48.5t54 31t63 11q47 0 78.5 -26t38.5 -72l56 -384q3 -19 8.5 -29t20.5 -10q46 0 53 55l53 312q6 35 23 63.5t41 48.5t54 31t62 11q46 0 78 -26.5t39 -71.5l92 -532h-118l-78 480q-3 19 -9.5 29t-20.5 10q-21 0 -35 -13.5t-19 -41.5
l-52 -312q-6 -35 -23 -63.5t-41 -48.5t-54 -31t-62 -11q-47 0 -78.5 26t-39.5 72l-55 384q-3 19 -9 29t-20 10q-45 0 -54 -55l-77 -464h-111z" />
    <glyph glyph-name="n" unicode="n" horiz-adv-x="685" 
d="M667 150q-6 -35 -22.5 -63.5t-40.5 -48.5t-54 -31t-63 -11q-46 0 -78 26t-39 72l-56 386q-3 39 -29 39q-21 0 -35 -13.5t-19 -41.5l-77 -464h-111l79 476q6 35 22.5 63.5t41 48.5t54.5 31t62 11q46 0 78 -26t39 -72l55 -386q2 -19 9 -29t21 -10q45 0 54 55l78 466h111z
" />
    <glyph glyph-name="o" unicode="o" horiz-adv-x="657" 
d="M397 110q38 0 71 17.5t57.5 52t38.5 86.5t14 121q0 131 -113 131h-99q-71 0 -114.5 -50t-60.5 -156q-7 -38 -7 -72q0 -130 112 -130h101zM456 628q227 0 227 -221q0 -21 -2 -43.5t-6 -47.5v-3q-52 -313 -323 -313h-47q-228 0 -228 220q0 42 9 93v3q27 155 108 233.5
t216 78.5h46z" />
    <glyph glyph-name="p" unicode="p" 
d="M209 371h208q15 0 30 7t26.5 18.5t18.5 27t7 33.5q0 25 -15.5 43t-40.5 18h-209zM445 628q43 0 73 -11t49.5 -30.5t28.5 -46t9 -57.5q0 -36 -12.5 -75.5t-39 -72t-68.5 -53.5t-101 -21h-193l-44 -261h-104l104 628h298z" />
    <glyph glyph-name="q" unicode="q" horiz-adv-x="665" 
d="M526 181q10 15 19 38t16.5 51t12 58t4.5 59q0 131 -113 131h-99q-71 0 -114.5 -50t-60.5 -156q-7 -38 -7 -72q0 -130 112 -130h117l-102 56l20 123zM456 628q112 0 170 -54.5t58 -165.5q0 -38 -6 -76.5t-15.5 -75t-22.5 -68.5t-27 -55l37 -20l-20 -119l-101 54
q-36 -23 -79.5 -35.5t-97.5 -12.5h-47q-228 0 -228 220q0 42 9 93v3q27 155 108 233.5t216 78.5h46z" />
    <glyph glyph-name="r" unicode="r" 
d="M208 367h208q15 0 30 7.5t27 19.5t19 28t7 33q0 26 -15.5 44.5t-40.5 18.5h-209zM445 628q43 0 73 -11t49.5 -30.5t28.5 -46t9 -57.5q0 -36 -12.5 -75.5t-39 -72t-68.5 -53.5t-101 -21h-49l217 -142l-22 -132l-344 247l-39 -234h-104l104 628h298z" />
    <glyph glyph-name="s" unicode="s" horiz-adv-x="593" 
d="M292 518q-16 0 -30.5 -7.5t-26 -19.5t-18 -28t-6.5 -32q0 -26 15.5 -43t41.5 -17h165q76 0 118.5 -36t42.5 -105q0 -57 -17.5 -100.5t-47.5 -72t-71 -43t-88 -14.5h-306l18 110h326q15 0 29 7t25 19t17.5 28.5t6.5 34.5q0 26 -14 44t-39 18h-168q-45 0 -76 12.5t-49.5 33
t-27 47t-8.5 54.5q0 43 14 83t42 70.5t69.5 48.5t96.5 18h297l-18 -110h-313z" />
    <glyph glyph-name="t" unicode="t" horiz-adv-x="438" 
d="M275 0h-104l86 518h-147l18 110h391l-18 -110h-139z" />
    <glyph glyph-name="u" unicode="u" horiz-adv-x="587" 
d="M583 233q-9 -54 -32 -97.5t-59 -75t-85.5 -48.5t-112.5 -17q-109 0 -163 51.5t-54 136.5q0 26 4 49l66 396h105l-66 -394q-1 -6 -1.5 -12t-0.5 -11q0 -48 33 -77t96 -29h2q71 0 112.5 36t51.5 93l65 394h105z" />
    <glyph glyph-name="v" unicode="v" horiz-adv-x="642" 
d="M340 107q6 0 12.5 4t11.5 13l252 504h111l-278 -552q-20 -41 -54 -60.5t-75 -19.5t-68 20t-34 60l-94 552h112l82 -504q2 -9 7 -13t11 -4h4z" />
    <glyph glyph-name="w" unicode="w" horiz-adv-x="1019" 
d="M833 94q-23 -45 -63 -71.5t-86 -26.5q-58 0 -94.5 33.5t-36.5 91.5q0 14 3 29l52 315q1 5 1.5 9t0.5 9q0 37 -37 37q-14 0 -24 -10t-19 -29l-185 -387h1q-22 -46 -63.5 -72t-86.5 -26q-59 0 -95.5 34t-36.5 91q0 14 3 29l80 478h111l-78 -466q-1 -5 -1 -8.5v-7.5
q0 -39 37 -39q15 0 24 10t18 29l186 387q22 45 63 71.5t87 26.5q58 0 94 -34t36 -91q0 -7 -0.5 -14t-1.5 -15l-53 -315q-1 -5 -1.5 -9.5t-0.5 -8.5q0 -37 37 -37q14 0 23.5 10t19.5 29l239 482h118z" />
    <glyph glyph-name="x" unicode="x" horiz-adv-x="576" 
d="M560 0h-126l-104 254l-188 -254h-126l245 322l-140 306h124l106 -252l189 252h124l-244 -306z" />
    <glyph glyph-name="y" unicode="y" horiz-adv-x="576" 
d="M282 278l-162 350h125l106 -252l189 252h125l-277 -343l-48 -285h-104z" />
    <glyph glyph-name="z" unicode="z" horiz-adv-x="638" 
d="M536 438q19 8 30.5 22.5t11.5 28.5q0 12 -8 20.5t-26 8.5h-398l18 110h396q62 0 92.5 -30.5t30.5 -81.5q0 -16 -3 -32q-2 -12 -7 -30t-17.5 -38t-35 -40t-60.5 -36l-353 -150q-17 -7 -27.5 -20.5t-10.5 -31.5q0 -28 30 -28h404l-18 -110h-402q-63 0 -93.5 30t-30.5 80
q0 15 3.5 38t16 48.5t36.5 49.5t66 42z" />
    <glyph glyph-name="braceleft" unicode="{" horiz-adv-x="370" 
d="M235 -114q-90 0 -90 105q0 26 6 61l10 66q2 18 4.5 33t1.5 28q0 47 -21 67t-67 22l16 96q59 3 89.5 37t43.5 113l11 67q27 166 140 166h70l-14 -85q-35 0 -56 -6t-34 -24t-21.5 -51t-17.5 -88q-9 -54 -32.5 -94t-74.5 -73l-4 -21q55 -49 55 -127q0 -20 -3 -39
q-6 -37 -9.5 -63.5t-3.5 -45.5q0 -33 12 -45t41 -12q7 0 15 0.5t18 1.5l-15 -89h-70z" />
    <glyph glyph-name="braceright" unicode="}" horiz-adv-x="370" 
d="M229 746q90 0 90 -106q0 -27 -6 -60l-11 -66q-6 -35 -6 -60q0 -48 21.5 -68t68.5 -22l-16 -96q-30 -2 -52.5 -10.5t-38 -26.5t-26 -46t-17.5 -67l-12 -67q-15 -84 -48.5 -125t-90.5 -41h-71l15 85h12q27 0 45 5t30.5 22.5t22 51t19.5 90.5q9 54 32.5 94t74.5 72l4 21
q-56 48 -56 125q0 22 4 42q12 72 12 107q0 41 -17 51t-55 10h-13l15 85h70z" />
    <glyph glyph-name="uni0081" horiz-adv-x="238" 
d="M281 696v7q0 14 -10.5 24t-27.5 10q-19 0 -35 -14t-16 -34q0 -16 11 -25t27 -9q20 0 34 11t17 30zM324 696q-3 -18 -12.5 -34t-23.5 -27.5t-31 -18t-35 -6.5q-31 0 -51.5 20t-20.5 52q0 22 9 40.5t23.5 32t33 21.5t36.5 8q31 0 52 -20.5t21 -52.5q0 -10 -1 -15z" />
    <glyph glyph-name="exclamdown" unicode="&#xa1;" horiz-adv-x="191" 
d="M235 517h-105l18 111h105zM148 0h-104l68 411h105z" />
    <glyph glyph-name="cent" unicode="&#xa2;" 
d="M408 741h70l-152 -907h-70zM305 0q-228 0 -228 220q0 42 9 93v3q57 312 324 312h218l-18 -110h-244q-71 0 -114.5 -50t-60.5 -156q-7 -38 -7 -72q0 -130 112 -130h245l-19 -110h-217z" />
    <glyph glyph-name="sterling" unicode="&#xa3;" horiz-adv-x="475" 
d="M121 110l25 151h-63l18 110h63q11 57 36.5 104.5t64 81.5t90.5 52.5t115 18.5h72l-18 -110h-75q-69 0 -117 -37.5t-63 -109.5h130l-18 -110h-130l-26 -151h231l-18 -110h-399l18 110h64z" />
    <glyph glyph-name="currency" unicode="&#xa4;" horiz-adv-x="538" 
d="M220 285h196l-57 -99h-138q13 -37 38.5 -56.5t71.5 -19.5h170l-18 -110h-144q-209 0 -227 186h-46l18 99h32l10 61h-32l16 98h48q38 91 110.5 137.5t176.5 46.5h164l-62 -110h-147q-43 0 -78 -19.5t-55 -54.5h238l-55 -98h-219z" />
    <glyph glyph-name="yen" unicode="&#xa5;" horiz-adv-x="651" 
d="M369 0h-113l7 44h-91l14 85h91l9 47h-91l13 84h72l-156 368h126l123 -274l212 274h129l-286 -368h69l-13 -84h-86l-9 -47h86l-14 -85h-86z" />
    <glyph glyph-name="dieresis" unicode="&#xa8;" horiz-adv-x="323" 
d="M343 653q-21 0 -35 15.5t-14 37.5q0 15 6.5 27.5t16.5 21.5t22 14.5t24 5.5q22 0 34.5 -13.5t12.5 -35.5q0 -29 -19 -51t-48 -22zM199 653q-23 0 -36 14.5t-13 36.5q0 30 21.5 50.5t47.5 20.5q21 0 34 -13.5t13 -34.5q0 -29 -19 -51.5t-48 -22.5z" />
    <glyph glyph-name="copyright" unicode="&#xa9;" horiz-adv-x="642" 
d="M350 151q-100 0 -100 96q0 22 4 42l1 2q24 137 142 137h96l-8 -48h-108q-61 0 -77 -91v-4q-3 -17 -3 -29q0 -56 50 -56h107l-8 -49h-96zM157 285q-4 -20 -4 -43q0 -43 14.5 -80t40.5 -64t62 -42.5t79 -15.5q52 0 102 23.5t89 63t63 91.5t24 110q0 43 -14.5 80t-41 64.5
t-62.5 43t-79 15.5q-48 0 -93.5 -19.5t-82.5 -53t-62.5 -78t-34.5 -95.5zM116 286q10 58 40.5 110.5t74.5 91.5t97 62t109 23q49 0 91 -18.5t72.5 -51t47.5 -76t17 -93.5q0 -66 -28 -126.5t-73.5 -107t-104 -74t-119.5 -27.5q-50 0 -91.5 18.5t-72 50.5t-47.5 75.5t-17 93.5
q0 26 4 49z" />
    <glyph glyph-name="guillemotleft" unicode="&#xab;" horiz-adv-x="403" 
d="M402 265l-12 -72l-146 84l12 67l173 87l-12 -74l-102 -46zM240 265l-11 -72l-146 84l11 67l174 87l-12 -74l-102 -46z" />
    <glyph glyph-name="registered" unicode="&#xae;" horiz-adv-x="560" 
d="M368 524q-44 0 -79 -17.5t-60.5 -45t-39 -61t-13.5 -66.5q0 -26 9 -50t26.5 -42.5t43 -29.5t58.5 -11q37 0 73.5 14.5t65.5 39t46.5 58t17.5 71.5q0 27 -10 52t-29.5 44.5t-47 31.5t-61.5 12zM305 142q-43 0 -78 14.5t-59.5 40t-37.5 58.5t-13 71q0 51 21 97.5t57 82.5
t83.5 57.5t100.5 21.5q44 0 79.5 -13.5t60.5 -38t38.5 -58t13.5 -73.5q0 -49 -21 -95.5t-57.5 -83t-85 -59t-102.5 -22.5zM307 380h67q11 0 19 7.5t8 20.5q0 8 -5 14t-13 6h-69zM383 464q29 0 41 -13t12 -33q0 -11 -4 -24t-12.5 -24t-22.5 -18.5t-34 -7.5h-15l71 -46l-8 -44
l-112 81l-13 -76h-34l34 205h97z" />
    <glyph glyph-name="macron" unicode="&#xaf;" horiz-adv-x="285" 
d="M378 737l-13 -84h-228l13 84h228z" />
    <glyph glyph-name="degree" unicode="&#xb0;" horiz-adv-x="305" 
d="M251 589q-36 0 -57 -23.5t-21 -53.5q0 -23 14 -37.5t43 -14.5q16 0 31 6t26.5 16t18 23t6.5 28q0 23 -16.5 39.5t-44.5 16.5zM219 394q-51 0 -78.5 31.5t-27.5 76.5q0 31 12 59t32.5 49t47.5 33t57 12q49 0 78.5 -30t29.5 -77q0 -30 -12.5 -57.5t-33 -49t-48 -34.5
t-57.5 -13z" />
    <glyph glyph-name="acute" unicode="&#xb4;" horiz-adv-x="175" 
d="M124 652l82 118h86l-117 -118h-51z" />
    <glyph glyph-name="cedilla" unicode="&#xb8;" horiz-adv-x="241" 
d="M16 -135h78q16 0 23.5 9.5t7.5 19.5q0 7 -5 12.5t-18 5.5h-78l17 103h59l-7 -40h28q36 0 53 -21t17 -50q0 -18 -6.5 -37t-19 -34t-31 -24.5t-43.5 -9.5h-86z" />
    <glyph glyph-name="ordmasculine" unicode="&#xba;" horiz-adv-x="322" 
d="M258 589q-31 0 -48.5 -20.5t-17.5 -50.5q0 -41 49 -41q30 0 48 17.5t18 52.5q0 42 -49 42zM230 416q-58 0 -88.5 24t-30.5 68q0 30 11.5 55.5t32.5 45t50 30.5t64 11q55 0 86.5 -27.5t31.5 -71.5q0 -31 -11.5 -56t-32.5 -42.5t-50 -27t-63 -9.5z" />
    <glyph glyph-name="guillemotright" unicode="&#xbb;" horiz-adv-x="380" 
d="M85 359l11 72l146 -84l-11 -67l-174 -87l12 74l101 46zM254 359l11 72l146 -84l-11 -67l-174 -87l12 74l101 46z" />
    <glyph glyph-name="questiondown" unicode="&#xbf;" horiz-adv-x="581" 
d="M506 516h-110l19 112h110zM205 0q-61 0 -100 37t-39 106q0 22 4 42l1 6q6 36 24 68t44.5 56t59 38t67.5 14h23q29 0 55 21.5t38 54.5h108l-3 -14q-5 -33 -25 -64t-48 -55t-60.5 -38.5t-63.5 -14.5h-35q-15 0 -30 -7t-26 -19t-18 -27.5t-7 -33.5q0 -25 15.5 -42.5
t40.5 -17.5h312l-18 -110h-319z" />
    <glyph glyph-name="Agrave" unicode="&#xc0;" horiz-adv-x="642" 
d="M511 0l-83 500q-2 9 -7.5 13t-12.5 4q-18 0 -26 -17l-251 -500h-111l276 547q20 41 54 61t76 20q40 0 67.5 -20t34.5 -61l94 -547h-111zM422 771l44 -118h-52l-79 118h87z" />
    <glyph glyph-name="Aacute" unicode="&#xc1;" horiz-adv-x="642" 
d="M511 0l-83 500q-2 9 -7.5 13t-12.5 4q-18 0 -26 -17l-251 -500h-111l276 547q20 41 54 61t76 20q40 0 67.5 -20t34.5 -61l94 -547h-111zM393 652l82 118h86l-117 -118h-51z" />
    <glyph glyph-name="Acircumflex" unicode="&#xc2;" horiz-adv-x="642" 
d="M511 0l-83 500q-2 9 -7.5 13t-12.5 4q-18 0 -26 -17l-251 -500h-111l276 547q20 41 54 61t76 20q40 0 67.5 -20t34.5 -61l94 -547h-111zM379 652h-78l114 117h66l77 -117h-80l-40 62z" />
    <glyph glyph-name="Atilde" unicode="&#xc3;" horiz-adv-x="642" 
d="M511 0l-83 500q-2 9 -7.5 13t-12.5 4q-18 0 -26 -17l-251 -500h-111l276 547q20 41 54 61t76 20q40 0 67.5 -20t34.5 -61l94 -547h-111zM299 674q48 68 98 68q9 0 20.5 -5.5t24.5 -12t25 -12t23 -5.5q28 0 50 40l31 -44q-7 -17 -18.5 -29t-24.5 -19t-26 -10t-22 -3
q-14 0 -27 5t-25 11.5t-21 11.5t-14 5q-19 0 -57 -41z" />
    <glyph glyph-name="Adieresis" unicode="&#xc4;" horiz-adv-x="642" 
d="M511 0l-83 500q-2 9 -7.5 13t-12.5 4q-18 0 -26 -17l-251 -500h-111l276 547q20 41 54 61t76 20q40 0 67.5 -20t34.5 -61l94 -547h-111zM503 653q-21 0 -35 15.5t-14 37.5q0 15 6.5 27.5t16.5 21.5t22 14.5t24 5.5q22 0 34.5 -13.5t12.5 -35.5q0 -29 -19 -51t-48 -22z
M359 653q-23 0 -36 14.5t-13 36.5q0 30 21.5 50.5t47.5 20.5q21 0 34 -13.5t13 -34.5q0 -29 -19 -51.5t-48 -22.5z" />
    <glyph glyph-name="Aring" unicode="&#xc5;" horiz-adv-x="642" 
d="M511 0l-83 500q-2 9 -7.5 13t-12.5 4q-18 0 -26 -17l-251 -500h-111l276 547q20 41 54 61t76 20q40 0 67.5 -20t34.5 -61l94 -547h-111zM445 750q-16 0 -27 -13t-11 -30q0 -27 26 -27q14 0 27 11t13 29q0 13 -8 21.5t-20 8.5zM424 637q-26 0 -43.5 16.5t-17.5 43.5
q0 21 7.5 38.5t19.5 30t27.5 20t32.5 7.5q29 0 45.5 -18.5t16.5 -46.5q0 -20 -7.5 -36.5t-19.5 -28.5t-28 -19t-33 -7z" />
    <glyph glyph-name="AE" unicode="&#xc6;" horiz-adv-x="806" 
d="M290 532h-1q21 46 63 72t88 26q10 0 16 -0.5t10 -1.5h388l-18 -110h-266q1 -11 0 -21.5t-3 -20.5l-17 -105h261l-18 -110h-261l-26 -151h262l-18 -110h-373l77 464q1 5 1.5 9t0.5 9q0 37 -37 37q-28 0 -43 -40l-249 -479h-107z" />
    <glyph glyph-name="Ccedilla" unicode="&#xc7;" 
d="M305 0q-228 0 -228 220q0 42 9 93v3q57 312 324 312h218l-18 -110h-244q-71 0 -114.5 -50t-60.5 -156q-7 -38 -7 -72q0 -130 112 -130h245l-19 -110h-217zM270 -135h78q16 0 23.5 9.5t7.5 19.5q0 7 -5 12.5t-18 5.5h-78l17 103h59l-7 -40h28q36 0 53 -21t17 -50
q0 -18 -6.5 -37t-19 -34t-31 -24.5t-43.5 -9.5h-86z" />
    <glyph glyph-name="Egrave" unicode="&#xc8;" 
d="M605 518h-313q-16 0 -30.5 -7.5t-26 -19.5t-18 -28t-6.5 -33q0 -26 15 -42.5t42 -16.5h312l-18 -110h-313q-17 0 -31.5 -8t-26 -20.5t-18 -29t-6.5 -33.5q0 -27 15 -43.5t42 -16.5h313l-18 -110h-298q-44 0 -75 12t-50 32t-27.5 46.5t-8.5 55.5q0 22 5 46.5t15.5 47
t28 42.5t41.5 34q-25 17 -35 44t-10 55q0 46 15.5 85t44.5 67.5t70 44.5t91 16h297zM422 771l44 -118h-52l-79 118h87z" />
    <glyph glyph-name="Eacute" unicode="&#xc9;" 
d="M605 518h-313q-16 0 -30.5 -7.5t-26 -19.5t-18 -28t-6.5 -33q0 -26 15 -42.5t42 -16.5h312l-18 -110h-313q-17 0 -31.5 -8t-26 -20.5t-18 -29t-6.5 -33.5q0 -27 15 -43.5t42 -16.5h313l-18 -110h-298q-44 0 -75 12t-50 32t-27.5 46.5t-8.5 55.5q0 22 5 46.5t15.5 47
t28 42.5t41.5 34q-25 17 -35 44t-10 55q0 46 15.5 85t44.5 67.5t70 44.5t91 16h297zM370 652l82 118h86l-117 -118h-51z" />
    <glyph glyph-name="Ecircumflex" unicode="&#xca;" 
d="M605 518h-313q-16 0 -30.5 -7.5t-26 -19.5t-18 -28t-6.5 -33q0 -26 15 -42.5t42 -16.5h312l-18 -110h-313q-17 0 -31.5 -8t-26 -20.5t-18 -29t-6.5 -33.5q0 -27 15 -43.5t42 -16.5h313l-18 -110h-298q-44 0 -75 12t-50 32t-27.5 46.5t-8.5 55.5q0 22 5 46.5t15.5 47
t28 42.5t41.5 34q-25 17 -35 44t-10 55q0 46 15.5 85t44.5 67.5t70 44.5t91 16h297zM365 652h-78l114 117h66l77 -117h-80l-40 62z" />
    <glyph glyph-name="Edieresis" unicode="&#xcb;" 
d="M605 518h-313q-16 0 -30.5 -7.5t-26 -19.5t-18 -28t-6.5 -33q0 -26 15 -42.5t42 -16.5h312l-18 -110h-313q-17 0 -31.5 -8t-26 -20.5t-18 -29t-6.5 -33.5q0 -27 15 -43.5t42 -16.5h313l-18 -110h-298q-44 0 -75 12t-50 32t-27.5 46.5t-8.5 55.5q0 22 5 46.5t15.5 47
t28 42.5t41.5 34q-25 17 -35 44t-10 55q0 46 15.5 85t44.5 67.5t70 44.5t91 16h297zM491 653q-21 0 -35 15.5t-14 37.5q0 15 6.5 27.5t16.5 21.5t22 14.5t24 5.5q22 0 34.5 -13.5t12.5 -35.5q0 -29 -19 -51t-48 -22zM347 653q-23 0 -36 14.5t-13 36.5q0 30 21.5 50.5
t47.5 20.5q21 0 34 -13.5t13 -34.5q0 -29 -19 -51.5t-48 -22.5z" />
    <glyph glyph-name="Igrave" unicode="&#xcc;" horiz-adv-x="190" 
d="M147 628h105l-105 -628h-104zM202 771l44 -118h-52l-79 118h87z" />
    <glyph glyph-name="Iacute" unicode="&#xcd;" horiz-adv-x="190" 
d="M147 628h105l-105 -628h-104zM172 652l82 118h86l-117 -118h-51z" />
    <glyph glyph-name="Icircumflex" unicode="&#xce;" horiz-adv-x="190" 
d="M147 628h105l-105 -628h-104zM157 652h-78l114 117h66l77 -117h-80l-40 62z" />
    <glyph glyph-name="Idieresis" unicode="&#xcf;" horiz-adv-x="190" 
d="M147 628h105l-105 -628h-104zM279 653q-21 0 -35 15.5t-14 37.5q0 15 6.5 27.5t16.5 21.5t22 14.5t24 5.5q22 0 34.5 -13.5t12.5 -35.5q0 -29 -19 -51t-48 -22zM135 653q-23 0 -36 14.5t-13 36.5q0 30 21.5 50.5t47.5 20.5q21 0 34 -13.5t13 -34.5q0 -29 -19 -51.5
t-48 -22.5z" />
    <glyph glyph-name="Eth" unicode="&#xd0;" horiz-adv-x="594" 
d="M165 110h167q72 0 115 50t60 156q3 20 5 38t2 34q0 130 -112 130h-168zM393 628q227 0 227 -220q0 -21 -1.5 -44t-6.5 -49v-3q-56 -312 -324 -312h-245l104 628h246zM69 372h243l-19 -112h-243z" />
    <glyph glyph-name="Ntilde" unicode="&#xd1;" horiz-adv-x="685" 
d="M667 149q-6 -35 -22.5 -63.5t-40.5 -48.5t-54 -31t-63 -11q-46 0 -78 26t-39 72l-56 387q-3 39 -29 39q-21 0 -35 -13.5t-19 -41.5l-77 -464h-111l79 476q6 35 22.5 63.5t41 48.5t54.5 31t62 11q46 0 77.5 -26.5t38.5 -71.5l56 -387q3 -19 9.5 -29t20.5 -10q21 0 35 13.5
t19 41.5l78 467h111zM328 674q48 68 98 68q9 0 20.5 -5.5t24.5 -12t25 -12t23 -5.5q28 0 50 40l31 -44q-7 -17 -18.5 -29t-24.5 -19t-26 -10t-22 -3q-14 0 -27 5t-25 11.5t-21 11.5t-14 5q-19 0 -57 -41z" />
    <glyph glyph-name="Ograve" unicode="&#xd2;" horiz-adv-x="657" 
d="M366 518q-71 0 -114.5 -50t-60.5 -156q-7 -38 -7 -72q0 -130 112 -130h101q38 0 71 17.5t57.5 52t38.5 86.5t14 121q0 131 -113 131h-99zM456 628q227 0 227 -221q0 -21 -2 -43.5t-6 -47.5v-3q-52 -313 -323 -313h-47q-228 0 -228 220q0 42 9 93v3q57 312 324 312h46z
M430 771l44 -118h-52l-79 118h87z" />
    <glyph glyph-name="Oacute" unicode="&#xd3;" horiz-adv-x="657" 
d="M366 518q-71 0 -114.5 -50t-60.5 -156q-7 -38 -7 -72q0 -130 112 -130h101q38 0 71 17.5t57.5 52t38.5 86.5t14 121q0 131 -113 131h-99zM456 628q227 0 227 -221q0 -21 -2 -43.5t-6 -47.5v-3q-52 -313 -323 -313h-47q-228 0 -228 220q0 42 9 93v3q57 312 324 312h46z
M373 652l82 118h86l-117 -118h-51z" />
    <glyph glyph-name="Ocircumflex" unicode="&#xd4;" horiz-adv-x="657" 
d="M366 518q-71 0 -114.5 -50t-60.5 -156q-7 -38 -7 -72q0 -130 112 -130h101q38 0 71 17.5t57.5 52t38.5 86.5t14 121q0 131 -113 131h-99zM456 628q227 0 227 -221q0 -21 -2 -43.5t-6 -47.5v-3q-52 -313 -323 -313h-47q-228 0 -228 220q0 42 9 93v3q57 312 324 312h46z
M390 652h-78l114 117h66l77 -117h-80l-40 62z" />
    <glyph glyph-name="Otilde" unicode="&#xd5;" horiz-adv-x="657" 
d="M366 518q-71 0 -114.5 -50t-60.5 -156q-7 -38 -7 -72q0 -130 112 -130h101q38 0 71 17.5t57.5 52t38.5 86.5t14 121q0 131 -113 131h-99zM456 628q227 0 227 -221q0 -21 -2 -43.5t-6 -47.5v-3q-52 -313 -323 -313h-47q-228 0 -228 220q0 42 9 93v3q57 312 324 312h46z
M306 674q48 68 98 68q9 0 20.5 -5.5t24.5 -12t25 -12t23 -5.5q28 0 50 40l31 -44q-7 -17 -18.5 -29t-24.5 -19t-26 -10t-22 -3q-14 0 -27 5t-25 11.5t-21 11.5t-14 5q-19 0 -57 -41z" />
    <glyph glyph-name="Odieresis" unicode="&#xd6;" horiz-adv-x="657" 
d="M366 518q-71 0 -114.5 -50t-60.5 -156q-7 -38 -7 -72q0 -130 112 -130h101q38 0 71 17.5t57.5 52t38.5 86.5t14 121q0 131 -113 131h-99zM456 628q227 0 227 -221q0 -21 -2 -43.5t-6 -47.5v-3q-52 -313 -323 -313h-47q-228 0 -228 220q0 42 9 93v3q57 312 324 312h46z
M508 653q-21 0 -35 15.5t-14 37.5q0 15 6.5 27.5t16.5 21.5t22 14.5t24 5.5q22 0 34.5 -13.5t12.5 -35.5q0 -29 -19 -51t-48 -22zM364 653q-23 0 -36 14.5t-13 36.5q0 30 21.5 50.5t47.5 20.5q21 0 34 -13.5t13 -34.5q0 -29 -19 -51.5t-48 -22.5z" />
    <glyph glyph-name="Oslash" unicode="&#xd8;" horiz-adv-x="657" 
d="M366 518q-71 0 -114.5 -50t-60.5 -156q-7 -38 -7 -72q0 -130 112 -130h101q38 0 71 17.5t57.5 52t38.5 86.5t14 121q0 131 -113 131h-99zM456 628q227 0 227 -221q0 -21 -2 -43.5t-6 -47.5v-3q-52 -313 -323 -313h-47q-228 0 -228 220q0 42 9 93v3q57 312 324 312h46z
M111 0l454 628h71l-452 -628h-73z" />
    <glyph glyph-name="Ugrave" unicode="&#xd9;" horiz-adv-x="587" 
d="M583 238q-9 -54 -31.5 -97.5t-58.5 -75t-86 -48.5t-113 -17q-108 0 -162 51.5t-54 136.5q0 26 4 49l65 391h105l-65 -389q-2 -6 -2 -12v-12q0 -47 33 -76t95 -29h3q71 0 112 36t52 93l64 389h105zM403 771l44 -118h-52l-79 118h87z" />
    <glyph glyph-name="Uacute" unicode="&#xda;" horiz-adv-x="587" 
d="M583 238q-9 -54 -31.5 -97.5t-58.5 -75t-86 -48.5t-113 -17q-108 0 -162 51.5t-54 136.5q0 26 4 49l65 391h105l-65 -389q-2 -6 -2 -12v-12q0 -47 33 -76t95 -29h3q71 0 112 36t52 93l64 389h105zM355 652l82 118h86l-117 -118h-51z" />
    <glyph glyph-name="Ucircumflex" unicode="&#xdb;" horiz-adv-x="587" 
d="M583 238q-9 -54 -31.5 -97.5t-58.5 -75t-86 -48.5t-113 -17q-108 0 -162 51.5t-54 136.5q0 26 4 49l65 391h105l-65 -389q-2 -6 -2 -12v-12q0 -47 33 -76t95 -29h3q71 0 112 36t52 93l64 389h105zM357 652h-78l114 117h66l77 -117h-80l-40 62z" />
    <glyph glyph-name="Udieresis" unicode="&#xdc;" horiz-adv-x="587" 
d="M583 238q-9 -54 -31.5 -97.5t-58.5 -75t-86 -48.5t-113 -17q-108 0 -162 51.5t-54 136.5q0 26 4 49l65 391h105l-65 -389q-2 -6 -2 -12v-12q0 -47 33 -76t95 -29h3q71 0 112 36t52 93l64 389h105zM478 653q-21 0 -35 15.5t-14 37.5q0 15 6.5 27.5t16.5 21.5t22 14.5
t24 5.5q22 0 34.5 -13.5t12.5 -35.5q0 -29 -19 -51t-48 -22zM334 653q-23 0 -36 14.5t-13 36.5q0 30 21.5 50.5t47.5 20.5q21 0 34 -13.5t13 -34.5q0 -29 -19 -51.5t-48 -22.5z" />
    <glyph glyph-name="Yacute" unicode="&#xdd;" horiz-adv-x="576" 
d="M282 278l-162 350h125l106 -252l189 252h125l-277 -343l-48 -285h-104zM348 652l82 118h86l-117 -118h-51z" />
    <glyph glyph-name="Thorn" unicode="&#xde;" horiz-adv-x="516" 
d="M188 246h161q16 0 30.5 7t26 19t18 27.5t6.5 33.5q0 25 -15.5 42.5t-40.5 17.5h-161zM252 628l-21 -125h145q43 0 73.5 -11t50 -30.5t28.5 -46.5t9 -58q0 -36 -12.5 -75.5t-39.5 -71.5t-69.5 -53t-101.5 -21h-145l-22 -136h-104l104 628h105z" />
    <glyph glyph-name="germandbls" unicode="&#xdf;" horiz-adv-x="1186" 
d="M589 184q-15 -91 -72.5 -137.5t-146.5 -46.5h-306l18 110h326q15 0 29 7t25 19t17.5 28.5t6.5 34.5q0 26 -14 44t-39 18h-168q-45 0 -76 12.5t-49.5 33t-27 47t-8.5 54.5q0 43 14 83t42 70.5t69.5 48.5t96.5 18h297l-18 -110h-313q-16 0 -30.5 -7.5t-26 -19.5t-18 -28
t-6.5 -32q0 -26 15.5 -43t41.5 -17h165q76 0 118.5 -36t42.5 -105q0 -10 -1 -20.5t-3 -21.5zM1182 184q-15 -91 -72.5 -137.5t-146.5 -46.5h-306l18 110h326q15 0 29 7t25 19t17.5 28.5t6.5 34.5q0 26 -14 44t-39 18h-168q-45 0 -76 12.5t-49.5 33t-27 47t-8.5 54.5
q0 43 14 83t42 70.5t69.5 48.5t96.5 18h297l-18 -110h-313q-16 0 -30.5 -7.5t-26 -19.5t-18 -28t-6.5 -32q0 -26 15.5 -43t41.5 -17h165q76 0 118.5 -36t42.5 -105q0 -10 -1 -20.5t-3 -21.5z" />
    <glyph glyph-name="agrave" unicode="&#xe0;" horiz-adv-x="642" 
d="M406 518q-14 0 -24 -18l-152 -300h247l-50 299q-2 11 -7 15t-11 4h-3zM175 90l-44 -90h-111l276 548q22 41 55 61t75 20q40 0 68 -20t34 -61l94 -548h-111l-16 90h-320zM419 771l44 -118h-52l-79 118h87z" />
    <glyph glyph-name="aacute" unicode="&#xe1;" horiz-adv-x="642" 
d="M406 518q-14 0 -24 -18l-152 -300h247l-50 299q-2 11 -7 15t-11 4h-3zM175 90l-44 -90h-111l276 548q22 41 55 61t75 20q40 0 68 -20t34 -61l94 -548h-111l-16 90h-320zM376 652l82 118h86l-117 -118h-51z" />
    <glyph glyph-name="acircumflex" unicode="&#xe2;" horiz-adv-x="642" 
d="M406 518q-14 0 -24 -18l-152 -300h247l-50 299q-2 11 -7 15t-11 4h-3zM175 90l-44 -90h-111l276 548q22 41 55 61t75 20q40 0 68 -20t34 -61l94 -548h-111l-16 90h-320zM377 652h-78l114 117h66l77 -117h-80l-40 62z" />
    <glyph glyph-name="atilde" unicode="&#xe3;" horiz-adv-x="642" 
d="M406 518q-14 0 -24 -18l-152 -300h247l-50 299q-2 11 -7 15t-11 4h-3zM175 90l-44 -90h-111l276 548q22 41 55 61t75 20q40 0 68 -20t34 -61l94 -548h-111l-16 90h-320zM298 674q48 68 98 68q9 0 20.5 -5.5t24.5 -12t25 -12t23 -5.5q28 0 50 40l31 -44q-7 -17 -18.5 -29
t-24.5 -19t-26 -10t-22 -3q-14 0 -27 5t-25 11.5t-21 11.5t-14 5q-19 0 -57 -41z" />
    <glyph glyph-name="adieresis" unicode="&#xe4;" horiz-adv-x="642" 
d="M406 518q-14 0 -24 -18l-152 -300h247l-50 299q-2 11 -7 15t-11 4h-3zM175 90l-44 -90h-111l276 548q22 41 55 61t75 20q40 0 68 -20t34 -61l94 -548h-111l-16 90h-320zM504 653q-21 0 -35 15.5t-14 37.5q0 15 6.5 27.5t16.5 21.5t22 14.5t24 5.5q22 0 34.5 -13.5
t12.5 -35.5q0 -29 -19 -51t-48 -22zM360 653q-23 0 -36 14.5t-13 36.5q0 30 21.5 50.5t47.5 20.5q21 0 34 -13.5t13 -34.5q0 -29 -19 -51.5t-48 -22.5z" />
    <glyph glyph-name="aring" unicode="&#xe5;" horiz-adv-x="642" 
d="M406 518q-14 0 -24 -18l-152 -300h247l-50 299q-2 11 -7 15t-11 4h-3zM175 90l-44 -90h-111l276 548q22 41 55 61t75 20q40 0 68 -20t34 -61l94 -548h-111l-16 90h-320zM448 750q-16 0 -27 -13t-11 -30q0 -27 26 -27q14 0 27 11t13 29q0 13 -8 21.5t-20 8.5zM427 637
q-26 0 -43.5 16.5t-17.5 43.5q0 21 7.5 38.5t19.5 30t27.5 20t32.5 7.5q29 0 45.5 -18.5t16.5 -46.5q0 -20 -7.5 -36.5t-19.5 -28.5t-28 -19t-33 -7z" />
    <glyph glyph-name="ae" unicode="&#xe6;" horiz-adv-x="806" 
d="M290 532h-1q21 46 63 72t88 26h13q4 0 6.5 -0.5t6.5 -1.5h388l-18 -110h-266q1 -11 0 -21.5t-3 -20.5l-17 -105h261l-18 -110h-261l-26 -151h262l-18 -110h-373l14 90h-218l-46 -90h-107zM409 193l45 271q1 5 1.5 9t0.5 9q0 37 -37 37q-28 0 -43 -40l-148 -286h181z" />
    <glyph glyph-name="ccedilla" unicode="&#xe7;" 
d="M305 0q-228 0 -228 220q0 42 9 93v3q57 312 324 312h218l-18 -110h-244q-71 0 -114.5 -50t-60.5 -156q-7 -38 -7 -72q0 -130 112 -130h245l-19 -110h-217zM267 -135h78q16 0 23.5 9.5t7.5 19.5q0 7 -5 12.5t-18 5.5h-78l17 103h59l-7 -40h28q36 0 53 -21t17 -50
q0 -18 -6.5 -37t-19 -34t-31 -24.5t-43.5 -9.5h-86z" />
    <glyph glyph-name="egrave" unicode="&#xe8;" 
d="M605 518h-313q-16 0 -30.5 -7.5t-26 -19.5t-18 -28t-6.5 -33q0 -26 15 -42.5t42 -16.5h312l-18 -110h-313q-17 0 -31.5 -8t-26 -20.5t-18 -29t-6.5 -33.5q0 -27 15 -43.5t42 -16.5h313l-18 -110h-298q-44 0 -75 12t-50 32t-27.5 46.5t-8.5 55.5q0 22 5 46.5t15.5 47
t28 42.5t41.5 34q-25 17 -35 44t-10 55q0 44 14.5 83t42.5 68t69.5 45.5t94.5 16.5h297zM433 771l44 -118h-52l-79 118h87z" />
    <glyph glyph-name="eacute" unicode="&#xe9;" 
d="M605 518h-313q-16 0 -30.5 -7.5t-26 -19.5t-18 -28t-6.5 -33q0 -26 15 -42.5t42 -16.5h312l-18 -110h-313q-17 0 -31.5 -8t-26 -20.5t-18 -29t-6.5 -33.5q0 -27 15 -43.5t42 -16.5h313l-18 -110h-298q-44 0 -75 12t-50 32t-27.5 46.5t-8.5 55.5q0 22 5 46.5t15.5 47
t28 42.5t41.5 34q-25 17 -35 44t-10 55q0 44 14.5 83t42.5 68t69.5 45.5t94.5 16.5h297zM344 652l82 118h86l-117 -118h-51z" />
    <glyph glyph-name="ecircumflex" unicode="&#xea;" 
d="M605 518h-313q-16 0 -30.5 -7.5t-26 -19.5t-18 -28t-6.5 -33q0 -26 15 -42.5t42 -16.5h312l-18 -110h-313q-17 0 -31.5 -8t-26 -20.5t-18 -29t-6.5 -33.5q0 -27 15 -43.5t42 -16.5h313l-18 -110h-298q-44 0 -75 12t-50 32t-27.5 46.5t-8.5 55.5q0 22 5 46.5t15.5 47
t28 42.5t41.5 34q-25 17 -35 44t-10 55q0 44 14.5 83t42.5 68t69.5 45.5t94.5 16.5h297zM354 652h-78l114 117h66l77 -117h-80l-40 62z" />
    <glyph glyph-name="edieresis" unicode="&#xeb;" 
d="M605 518h-313q-16 0 -30.5 -7.5t-26 -19.5t-18 -28t-6.5 -33q0 -26 15 -42.5t42 -16.5h312l-18 -110h-313q-17 0 -31.5 -8t-26 -20.5t-18 -29t-6.5 -33.5q0 -27 15 -43.5t42 -16.5h313l-18 -110h-298q-44 0 -75 12t-50 32t-27.5 46.5t-8.5 55.5q0 22 5 46.5t15.5 47
t28 42.5t41.5 34q-25 17 -35 44t-10 55q0 44 14.5 83t42.5 68t69.5 45.5t94.5 16.5h297zM484 653q-21 0 -35 15.5t-14 37.5q0 15 6.5 27.5t16.5 21.5t22 14.5t24 5.5q22 0 34.5 -13.5t12.5 -35.5q0 -29 -19 -51t-48 -22zM340 653q-23 0 -36 14.5t-13 36.5q0 30 21.5 50.5
t47.5 20.5q21 0 34 -13.5t13 -34.5q0 -29 -19 -51.5t-48 -22.5z" />
    <glyph glyph-name="igrave" unicode="&#xec;" horiz-adv-x="190" 
d="M147 628h105l-105 -628h-104zM195 771l44 -118h-52l-79 118h87z" />
    <glyph glyph-name="iacute" unicode="&#xed;" horiz-adv-x="190" 
d="M147 628h105l-105 -628h-104zM171 652l82 118h86l-117 -118h-51z" />
    <glyph glyph-name="icircumflex" unicode="&#xee;" horiz-adv-x="190" 
d="M147 628h105l-105 -628h-104zM154 652h-78l114 117h66l77 -117h-80l-40 62z" />
    <glyph glyph-name="idieresis" unicode="&#xef;" horiz-adv-x="190" 
d="M147 628h105l-105 -628h-104zM278 653q-21 0 -35 15.5t-14 37.5q0 15 6.5 27.5t16.5 21.5t22 14.5t24 5.5q22 0 34.5 -13.5t12.5 -35.5q0 -29 -19 -51t-48 -22zM134 653q-23 0 -36 14.5t-13 36.5q0 30 21.5 50.5t47.5 20.5q21 0 34 -13.5t13 -34.5q0 -29 -19 -51.5
t-48 -22.5z" />
    <glyph glyph-name="eth" unicode="&#xf0;" horiz-adv-x="594" 
d="M165 110h167q72 0 115 50t60 156q3 20 5 38t2 34q0 130 -112 130h-168zM393 628q227 0 227 -220q0 -21 -1.5 -44t-6.5 -49v-3q-56 -312 -324 -312h-245l104 628h246zM69 372h243l-19 -112h-243z" />
    <glyph glyph-name="ntilde" unicode="&#xf1;" horiz-adv-x="685" 
d="M667 150q-6 -35 -22.5 -63.5t-40.5 -48.5t-54 -31t-63 -11q-46 0 -78 26t-39 72l-56 386q-3 39 -29 39q-21 0 -35 -13.5t-19 -41.5l-77 -464h-111l79 476q6 35 22.5 63.5t41 48.5t54.5 31t62 11q46 0 78 -26t39 -72l55 -386q2 -19 9 -29t21 -10q45 0 54 55l78 466h111z
M323 674q48 68 98 68q9 0 20.5 -5.5t24.5 -12t25 -12t23 -5.5q28 0 50 40l31 -44q-7 -17 -18.5 -29t-24.5 -19t-26 -10t-22 -3q-14 0 -27 5t-25 11.5t-21 11.5t-14 5q-19 0 -57 -41z" />
    <glyph glyph-name="ograve" unicode="&#xf2;" horiz-adv-x="657" 
d="M397 110q38 0 71 17.5t57.5 52t38.5 86.5t14 121q0 131 -113 131h-99q-71 0 -114.5 -50t-60.5 -156q-7 -38 -7 -72q0 -130 112 -130h101zM456 628q227 0 227 -221q0 -21 -2 -43.5t-6 -47.5v-3q-52 -313 -323 -313h-47q-228 0 -228 220q0 42 9 93v3q27 155 108 233.5
t216 78.5h46zM415 771l44 -118h-52l-79 118h87z" />
    <glyph glyph-name="oacute" unicode="&#xf3;" horiz-adv-x="657" 
d="M397 110q38 0 71 17.5t57.5 52t38.5 86.5t14 121q0 131 -113 131h-99q-71 0 -114.5 -50t-60.5 -156q-7 -38 -7 -72q0 -130 112 -130h101zM456 628q227 0 227 -221q0 -21 -2 -43.5t-6 -47.5v-3q-52 -313 -323 -313h-47q-228 0 -228 220q0 42 9 93v3q27 155 108 233.5
t216 78.5h46zM389 652l82 118h86l-117 -118h-51z" />
    <glyph glyph-name="ocircumflex" unicode="&#xf4;" horiz-adv-x="657" 
d="M397 110q38 0 71 17.5t57.5 52t38.5 86.5t14 121q0 131 -113 131h-99q-71 0 -114.5 -50t-60.5 -156q-7 -38 -7 -72q0 -130 112 -130h101zM456 628q227 0 227 -221q0 -21 -2 -43.5t-6 -47.5v-3q-52 -313 -323 -313h-47q-228 0 -228 220q0 42 9 93v3q27 155 108 233.5
t216 78.5h46zM384 652h-78l114 117h66l77 -117h-80l-40 62z" />
    <glyph glyph-name="otilde" unicode="&#xf5;" horiz-adv-x="657" 
d="M397 110q38 0 71 17.5t57.5 52t38.5 86.5t14 121q0 131 -113 131h-99q-71 0 -114.5 -50t-60.5 -156q-7 -38 -7 -72q0 -130 112 -130h101zM456 628q227 0 227 -221q0 -21 -2 -43.5t-6 -47.5v-3q-52 -313 -323 -313h-47q-228 0 -228 220q0 42 9 93v3q27 155 108 233.5
t216 78.5h46zM303 674q48 68 98 68q9 0 20.5 -5.5t24.5 -12t25 -12t23 -5.5q28 0 50 40l31 -44q-7 -17 -18.5 -29t-24.5 -19t-26 -10t-22 -3q-14 0 -27 5t-25 11.5t-21 11.5t-14 5q-19 0 -57 -41z" />
    <glyph glyph-name="odieresis" unicode="&#xf6;" horiz-adv-x="657" 
d="M397 110q38 0 71 17.5t57.5 52t38.5 86.5t14 121q0 131 -113 131h-99q-71 0 -114.5 -50t-60.5 -156q-7 -38 -7 -72q0 -130 112 -130h101zM456 628q227 0 227 -221q0 -21 -2 -43.5t-6 -47.5v-3q-52 -313 -323 -313h-47q-228 0 -228 220q0 42 9 93v3q27 155 108 233.5
t216 78.5h46zM513 653q-21 0 -35 15.5t-14 37.5q0 15 6.5 27.5t16.5 21.5t22 14.5t24 5.5q22 0 34.5 -13.5t12.5 -35.5q0 -29 -19 -51t-48 -22zM369 653q-23 0 -36 14.5t-13 36.5q0 30 21.5 50.5t47.5 20.5q21 0 34 -13.5t13 -34.5q0 -29 -19 -51.5t-48 -22.5z" />
    <glyph glyph-name="oslash" unicode="&#xf8;" horiz-adv-x="657" 
d="M397 110q38 0 71 17.5t57.5 52t38.5 86.5t14 121q0 131 -113 131h-99q-71 0 -114.5 -50t-60.5 -156q-7 -38 -7 -72q0 -130 112 -130h101zM456 628q227 0 227 -221q0 -21 -2 -43.5t-6 -47.5v-3q-52 -313 -323 -313h-47q-228 0 -228 220q0 42 9 93v3q27 155 108 233.5
t216 78.5h46zM114 0l454 628h71l-452 -628h-73z" />
    <glyph glyph-name="ugrave" unicode="&#xf9;" horiz-adv-x="587" 
d="M583 233q-9 -54 -32 -97.5t-59 -75t-85.5 -48.5t-112.5 -17q-109 0 -163 51.5t-54 136.5q0 26 4 49l66 396h105l-66 -394q-1 -6 -1.5 -12t-0.5 -11q0 -48 33 -77t96 -29h2q71 0 112.5 36t51.5 93l65 394h105zM403 771l44 -118h-52l-79 118h87z" />
    <glyph glyph-name="uacute" unicode="&#xfa;" horiz-adv-x="587" 
d="M583 233q-9 -54 -32 -97.5t-59 -75t-85.5 -48.5t-112.5 -17q-109 0 -163 51.5t-54 136.5q0 26 4 49l66 396h105l-66 -394q-1 -6 -1.5 -12t-0.5 -11q0 -48 33 -77t96 -29h2q71 0 112.5 36t51.5 93l65 394h105zM350 652l82 118h86l-117 -118h-51z" />
    <glyph glyph-name="ucircumflex" unicode="&#xfb;" horiz-adv-x="587" 
d="M583 233q-9 -54 -32 -97.5t-59 -75t-85.5 -48.5t-112.5 -17q-109 0 -163 51.5t-54 136.5q0 26 4 49l66 396h105l-66 -394q-1 -6 -1.5 -12t-0.5 -11q0 -48 33 -77t96 -29h2q71 0 112.5 36t51.5 93l65 394h105zM358 652h-78l114 117h66l77 -117h-80l-40 62z" />
    <glyph glyph-name="udieresis" unicode="&#xfc;" horiz-adv-x="587" 
d="M583 233q-9 -54 -32 -97.5t-59 -75t-85.5 -48.5t-112.5 -17q-109 0 -163 51.5t-54 136.5q0 26 4 49l66 396h105l-66 -394q-1 -6 -1.5 -12t-0.5 -11q0 -48 33 -77t96 -29h2q71 0 112.5 36t51.5 93l65 394h105zM477 653q-21 0 -35 15.5t-14 37.5q0 15 6.5 27.5t16.5 21.5
t22 14.5t24 5.5q22 0 34.5 -13.5t12.5 -35.5q0 -29 -19 -51t-48 -22zM333 653q-23 0 -36 14.5t-13 36.5q0 30 21.5 50.5t47.5 20.5q21 0 34 -13.5t13 -34.5q0 -29 -19 -51.5t-48 -22.5z" />
    <glyph glyph-name="yacute" unicode="&#xfd;" horiz-adv-x="576" 
d="M282 278l-162 350h125l106 -252l189 252h125l-277 -343l-48 -285h-104zM349 652l82 118h86l-117 -118h-51z" />
    <glyph glyph-name="thorn" unicode="&#xfe;" horiz-adv-x="516" 
d="M188 246h161q16 0 30.5 7t26 19t18 27.5t6.5 33.5q0 25 -15.5 42.5t-40.5 17.5h-161zM252 628l-21 -125h145q43 0 73.5 -11t50 -30.5t28.5 -46.5t9 -58q0 -36 -12.5 -75.5t-39.5 -71.5t-69.5 -53t-101.5 -21h-145l-22 -136h-104l104 628h105z" />
    <glyph glyph-name="ydieresis" unicode="&#xff;" horiz-adv-x="576" 
d="M282 278l-162 350h125l106 -252l189 252h125l-277 -343l-48 -285h-104zM471 653q-21 0 -35 15.5t-14 37.5q0 15 6.5 27.5t16.5 21.5t22 14.5t24 5.5q22 0 34.5 -13.5t12.5 -35.5q0 -29 -19 -51t-48 -22zM327 653q-23 0 -36 14.5t-13 36.5q0 30 21.5 50.5t47.5 20.5
q21 0 34 -13.5t13 -34.5q0 -29 -19 -51.5t-48 -22.5z" />
    <glyph glyph-name="Amacron" unicode="&#x100;" horiz-adv-x="642" 
d="M511 0l-83 500q-2 9 -7.5 13t-12.5 4q-18 0 -26 -17l-251 -500h-111l276 547q20 41 54 61t76 20q40 0 67.5 -20t34.5 -61l94 -547h-111zM556 737l-13 -84h-228l13 84h228z" />
    <glyph glyph-name="amacron" unicode="&#x101;" horiz-adv-x="642" 
d="M406 518q-14 0 -24 -18l-152 -300h247l-50 299q-2 11 -7 15t-11 4h-3zM175 90l-44 -90h-111l276 548q22 41 55 61t75 20q40 0 68 -20t34 -61l94 -548h-111l-16 90h-320zM558 737l-13 -84h-228l13 84h228z" />
    <glyph glyph-name="Abreve" unicode="&#x102;" horiz-adv-x="642" 
d="M511 0l-83 500q-2 9 -7.5 13t-12.5 4q-18 0 -26 -17l-251 -500h-111l276 547q20 41 54 61t76 20q40 0 67.5 -20t34.5 -61l94 -547h-111zM427 650q-47 0 -67.5 27t-20.5 78v12h51q1 -29 12 -48t34 -19q22 0 38.5 19t27.5 48h56q-20 -57 -51 -87t-80 -30z" />
    <glyph glyph-name="abreve" unicode="&#x103;" horiz-adv-x="642" 
d="M406 518q-14 0 -24 -18l-152 -300h247l-50 299q-2 11 -7 15t-11 4h-3zM175 90l-44 -90h-111l276 548q22 41 55 61t75 20q40 0 68 -20t34 -61l94 -548h-111l-16 90h-320zM427 650q-47 0 -67.5 27t-20.5 78v12h51q1 -29 12 -48t34 -19q22 0 38.5 19t27.5 48h56
q-20 -57 -51 -87t-80 -30z" />
    <glyph glyph-name="Aogonek" unicode="&#x104;" horiz-adv-x="642" 
d="M511 0l-83 500q-2 9 -7.5 13t-12.5 4q-18 0 -26 -17l-251 -500h-111l276 547q20 41 54 61t76 20q40 0 67.5 -20t34.5 -61l94 -547h-111zM470 -201q-38 0 -54.5 20.5t-16.5 48.5q0 12 6.5 29t22 37t41.5 41t65 40h59q-38 -24 -62.5 -45.5t-38.5 -39t-20 -29t-6 -14.5
q0 -8 5.5 -15t18.5 -7h78l-11 -66h-87z" />
    <glyph glyph-name="aogonek" unicode="&#x105;" horiz-adv-x="642" 
d="M406 518q-14 0 -24 -18l-152 -300h247l-50 299q-2 11 -7 15t-11 4h-3zM175 90l-44 -90h-111l276 548q22 41 55 61t75 20q40 0 68 -20t34 -61l94 -548h-111l-16 90h-320zM468 -201q-38 0 -54.5 20.5t-16.5 48.5q0 12 6.5 29t22 37t41.5 41t65 40h59q-38 -24 -62.5 -45.5
t-38.5 -39t-20 -29t-6 -14.5q0 -8 5.5 -15t18.5 -7h78l-11 -66h-87z" />
    <glyph glyph-name="Cacute" unicode="&#x106;" 
d="M305 0q-228 0 -228 220q0 42 9 93v3q57 312 324 312h218l-18 -110h-244q-71 0 -114.5 -50t-60.5 -156q-7 -38 -7 -72q0 -130 112 -130h245l-19 -110h-217zM375 652l82 118h86l-117 -118h-51z" />
    <glyph glyph-name="cacute" unicode="&#x107;" 
d="M305 0q-228 0 -228 220q0 42 9 93v3q57 312 324 312h218l-18 -110h-244q-71 0 -114.5 -50t-60.5 -156q-7 -38 -7 -72q0 -130 112 -130h245l-19 -110h-217zM383 652l82 118h86l-117 -118h-51z" />
    <glyph glyph-name="Ccaron" unicode="&#x10c;" 
d="M305 0q-228 0 -228 220q0 42 9 93v3q57 312 324 312h218l-18 -110h-244q-71 0 -114.5 -50t-60.5 -156q-7 -38 -7 -72q0 -130 112 -130h245l-19 -110h-217zM508 771h77l-111 -117h-67l-77 117h79l39 -63z" />
    <glyph glyph-name="ccaron" unicode="&#x10d;" 
d="M305 0q-228 0 -228 220q0 42 9 93v3q57 312 324 312h218l-18 -110h-244q-71 0 -114.5 -50t-60.5 -156q-7 -38 -7 -72q0 -130 112 -130h245l-19 -110h-217zM514 771h77l-111 -117h-67l-77 117h79l39 -63z" />
    <glyph glyph-name="Dcaron" unicode="&#x10e;" horiz-adv-x="594" 
d="M165 110h167q72 0 115 50t60 156q3 20 5 38t2 34q0 130 -112 130h-168zM393 628q227 0 227 -220q0 -21 -1.5 -44t-6.5 -49v-3q-56 -312 -324 -312h-245l104 628h246zM435 771h77l-111 -117h-67l-77 117h79l39 -63z" />
    <glyph glyph-name="dcaron" unicode="&#x10f;" horiz-adv-x="594" 
d="M165 110h167q72 0 115 50t60 156q3 20 5 38t2 34q0 130 -112 130h-168zM393 628q227 0 227 -220q0 -21 -1.5 -44t-6.5 -49q-26 -158 -108 -236.5t-216 -78.5h-245l104 628h246zM426 771h77l-111 -117h-67l-77 117h79l39 -63z" />
    <glyph glyph-name="Dmacron" unicode="&#x110;" horiz-adv-x="594" 
d="M165 110h167q72 0 115 50t60 156q3 20 5 38t2 34q0 130 -112 130h-168zM393 628q227 0 227 -220q0 -21 -1.5 -44t-6.5 -49v-3q-56 -312 -324 -312h-245l104 628h246zM70 372h243l-19 -112h-243z" />
    <glyph glyph-name="dmacron" unicode="&#x111;" horiz-adv-x="594" 
d="M165 110h167q72 0 115 50t60 156q3 20 5 38t2 34q0 130 -112 130h-168zM393 628q227 0 227 -220q0 -21 -1.5 -44t-6.5 -49q-26 -158 -108 -236.5t-216 -78.5h-245l104 628h246zM62 372h243l-19 -112h-243z" />
    <glyph glyph-name="Emacron" unicode="&#x112;" 
d="M605 518h-313q-16 0 -30.5 -7.5t-26 -19.5t-18 -28t-6.5 -33q0 -26 15 -42.5t42 -16.5h312l-18 -110h-313q-17 0 -31.5 -8t-26 -20.5t-18 -29t-6.5 -33.5q0 -27 15 -43.5t42 -16.5h313l-18 -110h-298q-44 0 -75 12t-50 32t-27.5 46.5t-8.5 55.5q0 22 5 46.5t15.5 47
t28 42.5t41.5 34q-25 17 -35 44t-10 55q0 46 15.5 85t44.5 67.5t70 44.5t91 16h297zM544 737l-13 -84h-228l13 84h228z" />
    <glyph glyph-name="emacron" unicode="&#x113;" 
d="M605 518h-313q-16 0 -30.5 -7.5t-26 -19.5t-18 -28t-6.5 -33q0 -26 15 -42.5t42 -16.5h312l-18 -110h-313q-17 0 -31.5 -8t-26 -20.5t-18 -29t-6.5 -33.5q0 -27 15 -43.5t42 -16.5h313l-18 -110h-298q-44 0 -75 12t-50 32t-27.5 46.5t-8.5 55.5q0 22 5 46.5t15.5 47
t28 42.5t41.5 34q-25 17 -35 44t-10 55q0 44 14.5 83t42.5 68t69.5 45.5t94.5 16.5h297zM555 737l-13 -84h-228l13 84h228z" />
    <glyph glyph-name="Edotaccent" unicode="&#x116;" 
d="M605 518h-313q-16 0 -30.5 -7.5t-26 -19.5t-18 -28t-6.5 -33q0 -26 15 -42.5t42 -16.5h312l-18 -110h-313q-17 0 -31.5 -8t-26 -20.5t-18 -29t-6.5 -33.5q0 -27 15 -43.5t42 -16.5h313l-18 -110h-298q-44 0 -75 12t-50 32t-27.5 46.5t-8.5 55.5q0 22 5 46.5t15.5 47
t28 42.5t41.5 34q-25 17 -35 44t-10 55q0 46 15.5 85t44.5 67.5t70 44.5t91 16h297zM420 652q-24 0 -36.5 15.5t-12.5 41.5q0 39 21.5 65.5t53.5 26.5q18 0 32 -17.5t14 -43.5q0 -18 -6.5 -34t-17 -28t-23.5 -19t-25 -7z" />
    <glyph glyph-name="edotaccent" unicode="&#x117;" 
d="M605 518h-313q-16 0 -30.5 -7.5t-26 -19.5t-18 -28t-6.5 -33q0 -26 15 -42.5t42 -16.5h312l-18 -110h-313q-17 0 -31.5 -8t-26 -20.5t-18 -29t-6.5 -33.5q0 -27 15 -43.5t42 -16.5h313l-18 -110h-298q-44 0 -75 12t-50 32t-27.5 46.5t-8.5 55.5q0 22 5 46.5t15.5 47
t28 42.5t41.5 34q-25 17 -35 44t-10 55q0 44 14.5 83t42.5 68t69.5 45.5t94.5 16.5h297zM415 652q-24 0 -36.5 15.5t-12.5 41.5q0 39 21.5 65.5t53.5 26.5q18 0 32 -17.5t14 -43.5q0 -18 -6.5 -34t-17 -28t-23.5 -19t-25 -7z" />
    <glyph glyph-name="Eogonek" unicode="&#x118;" 
d="M605 518h-313q-16 0 -30.5 -7.5t-26 -19.5t-18 -28t-6.5 -33q0 -26 15 -42.5t42 -16.5h312l-18 -110h-313q-17 0 -31.5 -8t-26 -20.5t-18 -29t-6.5 -33.5q0 -27 15 -43.5t42 -16.5h313l-18 -110h-298q-44 0 -75 12t-50 32t-27.5 46.5t-8.5 55.5q0 22 5 46.5t15.5 47
t28 42.5t41.5 34q-25 17 -35 44t-10 55q0 46 15.5 85t44.5 67.5t70 44.5t91 16h297zM245 -201q-38 0 -54.5 20.5t-16.5 48.5q0 12 6.5 29t22 37t41.5 41t65 40h59q-38 -24 -62.5 -45.5t-38.5 -39t-20 -29t-6 -14.5q0 -8 5.5 -15t18.5 -7h78l-11 -66h-87z" />
    <glyph glyph-name="eogonek" unicode="&#x119;" 
d="M605 518h-313q-16 0 -30.5 -7.5t-26 -19.5t-18 -28t-6.5 -33q0 -26 15 -42.5t42 -16.5h312l-18 -110h-313q-17 0 -31.5 -8t-26 -20.5t-18 -29t-6.5 -33.5q0 -27 15 -43.5t42 -16.5h313l-18 -110h-298q-44 0 -75 12t-50 32t-27.5 46.5t-8.5 55.5q0 22 5 46.5t15.5 47
t28 42.5t41.5 34q-25 17 -35 44t-10 55q0 44 14.5 83t42.5 68t69.5 45.5t94.5 16.5h297zM235 -201q-38 0 -54.5 20.5t-16.5 48.5q0 12 6.5 29t22 37t41.5 41t65 40h59q-38 -24 -62.5 -45.5t-38.5 -39t-20 -29t-6 -14.5q0 -8 5.5 -15t18.5 -7h78l-11 -66h-87z" />
    <glyph glyph-name="Ecaron" unicode="&#x11a;" 
d="M605 518h-313q-16 0 -30.5 -7.5t-26 -19.5t-18 -28t-6.5 -33q0 -26 15 -42.5t42 -16.5h312l-18 -110h-313q-17 0 -31.5 -8t-26 -20.5t-18 -29t-6.5 -33.5q0 -27 15 -43.5t42 -16.5h313l-18 -110h-298q-44 0 -75 12t-50 32t-27.5 46.5t-8.5 55.5q0 22 5 46.5t15.5 47
t28 42.5t41.5 34q-25 17 -35 44t-10 55q0 46 15.5 85t44.5 67.5t70 44.5t91 16h297zM482 771h77l-111 -117h-67l-77 117h79l39 -63z" />
    <glyph glyph-name="ecaron" unicode="&#x11b;" 
d="M605 518h-313q-16 0 -30.5 -7.5t-26 -19.5t-18 -28t-6.5 -33q0 -26 15 -42.5t42 -16.5h312l-18 -110h-313q-17 0 -31.5 -8t-26 -20.5t-18 -29t-6.5 -33.5q0 -27 15 -43.5t42 -16.5h313l-18 -110h-298q-44 0 -75 12t-50 32t-27.5 46.5t-8.5 55.5q0 22 5 46.5t15.5 47
t28 42.5t41.5 34q-25 17 -35 44t-10 55q0 44 14.5 83t42.5 68t69.5 45.5t94.5 16.5h297zM490 771h77l-111 -117h-67l-77 117h79l39 -63z" />
    <glyph glyph-name="Gbreve" unicode="&#x11e;" horiz-adv-x="607" 
d="M305 0q-228 0 -228 220q0 42 9 93v3q57 312 324 312h218l-18 -110h-244q-71 0 -114.5 -50t-60.5 -156q-7 -38 -7 -72q0 -130 112 -130h126q15 0 29 7.5t25 20.5t17.5 29t6.5 33q0 26 -14 43.5t-39 17.5h-95l18 110h100q30 0 55 -11t42.5 -30.5t27.5 -47t10 -61.5
q0 -39 -15.5 -78t-42.5 -71t-63 -52t-76 -20h-103zM433 650q-47 0 -67.5 27t-20.5 78v12h51q1 -29 12 -48t34 -19q22 0 38.5 19t27.5 48h56q-20 -57 -51 -87t-80 -30z" />
    <glyph glyph-name="gbreve" unicode="&#x11f;" horiz-adv-x="607" 
d="M305 0q-228 0 -228 220q0 42 9 93v3q57 312 324 312h218l-18 -110h-244q-71 0 -114.5 -50t-60.5 -156q-7 -38 -7 -72q0 -130 112 -130h126q15 0 29 7.5t25 20.5t17.5 29t6.5 33q0 26 -14 43.5t-39 17.5h-95l18 110h100q31 0 56 -12.5t43 -33t27.5 -48t9.5 -57.5
q0 -47 -18 -87t-46.5 -69t-64 -46t-69.5 -18h-103zM427 650q-47 0 -67.5 27t-20.5 78v12h51q1 -29 12 -48t34 -19q22 0 38.5 19t27.5 48h56q-20 -57 -51 -87t-80 -30z" />
    <glyph glyph-name="Gcommaaccent" unicode="&#x122;" horiz-adv-x="607" 
d="M305 0q-228 0 -228 220q0 42 9 93v3q57 312 324 312h218l-18 -110h-244q-71 0 -114.5 -50t-60.5 -156q-7 -38 -7 -72q0 -130 112 -130h126q15 0 29 7.5t25 20.5t17.5 29t6.5 33q0 26 -14 43.5t-39 17.5h-95l18 110h100q30 0 55 -11t42.5 -30.5t27.5 -47t10 -61.5
q0 -39 -15.5 -78t-42.5 -71t-63 -52t-76 -20h-103zM262 -135h78q16 0 23.5 9.5t7.5 19.5q0 7 -5 12.5t-18 5.5h-78l17 103h59l-7 -40h28q36 0 53 -21t17 -50q0 -18 -6.5 -37t-19 -34t-31 -24.5t-43.5 -9.5h-86z" />
    <glyph glyph-name="gcommaaccent" unicode="&#x123;" horiz-adv-x="607" 
d="M305 0q-228 0 -228 220q0 42 9 93v3q57 312 324 312h218l-18 -110h-244q-71 0 -114.5 -50t-60.5 -156q-7 -38 -7 -72q0 -130 112 -130h126q15 0 29 7.5t25 20.5t17.5 29t6.5 33q0 26 -14 43.5t-39 17.5h-95l18 110h100q31 0 56 -12.5t43 -33t27.5 -48t9.5 -57.5
q0 -47 -18 -87t-46.5 -69t-64 -46t-69.5 -18h-103zM487.88 701.547q-3.26562 -19.1299 -12.5166 -34.9805t-22.584 -27.0557q-13.332 -11.2041 -29.9307 -17.4902q-16.5977 -6.28516 -34.5557 -6.28516l9.25098 60.1221q12.5166 0 20.1357 6.55957
q7.61816 6.55859 9.25098 15.8506l10.3389 63.4014h60.4053z" />
    <glyph glyph-name="Imacron" unicode="&#x12a;" horiz-adv-x="190" 
d="M147 628h105l-105 -628h-104zM335 737l-13 -84h-228l13 84h228z" />
    <glyph glyph-name="imacron" unicode="&#x12b;" horiz-adv-x="190" 
d="M147 628h105l-105 -628h-104zM335 737l-13 -84h-228l13 84h228z" />
    <glyph glyph-name="Iogonek" unicode="&#x12e;" horiz-adv-x="190" 
d="M147 628h105l-105 -628h-104zM6 -201q-38 0 -54.5 20.5t-16.5 48.5q0 12 6.5 29t22 37t41.5 41t65 40h59q-38 -24 -62.5 -45.5t-38.5 -39t-20 -29t-6 -14.5q0 -8 5.5 -15t18.5 -7h78l-11 -66h-87z" />
    <glyph glyph-name="iogonek" unicode="&#x12f;" horiz-adv-x="190" 
d="M147 628h105l-105 -628h-104zM6 -201q-38 0 -54.5 20.5t-16.5 48.5q0 12 6.5 29t22 37t41.5 41t65 40h59q-38 -24 -62.5 -45.5t-38.5 -39t-20 -29t-6 -14.5q0 -8 5.5 -15t18.5 -7h78l-11 -66h-87z" />
    <glyph glyph-name="Idotaccent" unicode="&#x130;" horiz-adv-x="190" 
d="M147 628h105l-105 -628h-104zM205 652q-24 0 -36.5 15.5t-12.5 41.5q0 39 21.5 65.5t53.5 26.5q18 0 32 -17.5t14 -43.5q0 -18 -6.5 -34t-17 -28t-23.5 -19t-25 -7z" />
    <glyph glyph-name="dotlessi" unicode="&#x131;" horiz-adv-x="190" 
d="M147 628h105l-105 -628h-104z" />
    <glyph glyph-name="Kcommaaccent" unicode="&#x136;" horiz-adv-x="585" 
d="M147 0h-104l104 628h105l-33 -200l429 206l-21 -126l-430 -194l364 -198l-20 -122l-361 207zM192 -135h78q16 0 23.5 9.5t7.5 19.5q0 7 -5 12.5t-18 5.5h-78l17 103h59l-7 -40h28q36 0 53 -21t17 -50q0 -18 -6.5 -37t-19 -34t-31 -24.5t-43.5 -9.5h-86z" />
    <glyph glyph-name="kcommaaccent" unicode="&#x137;" horiz-adv-x="585" 
d="M147 0h-104l104 628h105l-33 -200l429 206l-21 -126l-430 -194l364 -198l-20 -122l-361 207zM160 -135h78q16 0 23.5 9.5t7.5 19.5q0 7 -5 12.5t-18 5.5h-78l17 103h59l-7 -40h28q36 0 53 -21t17 -50q0 -18 -6.5 -37t-19 -34t-31 -24.5t-43.5 -9.5h-86z" />
    <glyph glyph-name="Lacute" unicode="&#x139;" horiz-adv-x="518" 
d="M306 0q-114 0 -169.5 55t-55.5 152q0 30 6 65l60 356h105l-60 -357q-3 -21 -3 -38q0 -59 34 -91t98 -32h182l-18 -110h-179zM166 652l82 118h86l-117 -118h-51z" />
    <glyph glyph-name="lacute" unicode="&#x13a;" horiz-adv-x="518" 
d="M306 0q-114 0 -169.5 55t-55.5 152q0 30 6 65l60 356h105l-60 -357q-3 -21 -3 -38q0 -59 34 -91t98 -32h182l-18 -110h-179zM163 652l82 118h86l-117 -118h-51z" />
    <glyph glyph-name="Lcommaaccent" unicode="&#x13b;" horiz-adv-x="518" 
d="M306 0q-114 0 -169.5 55t-55.5 152q0 30 6 65l60 356h105l-60 -357q-3 -21 -3 -38q0 -59 34 -91t98 -32h182l-18 -110h-179zM214 -135h78q16 0 23.5 9.5t7.5 19.5q0 7 -5 12.5t-18 5.5h-78l17 103h59l-7 -40h28q36 0 53 -21t17 -50q0 -18 -6.5 -37t-19 -34t-31 -24.5
t-43.5 -9.5h-86z" />
    <glyph glyph-name="lcommaaccent" unicode="&#x13c;" horiz-adv-x="518" 
d="M306 0q-114 0 -169.5 55t-55.5 152q0 30 6 65l60 356h105l-60 -357q-3 -21 -3 -38q0 -59 34 -91t98 -32h182l-18 -110h-179zM224 -135h78q16 0 23.5 9.5t7.5 19.5q0 7 -5 12.5t-18 5.5h-78l17 103h59l-7 -40h28q36 0 53 -21t17 -50q0 -18 -6.5 -37t-19 -34t-31 -24.5
t-43.5 -9.5h-86z" />
    <glyph glyph-name="Lcaron" unicode="&#x13d;" horiz-adv-x="518" 
d="M306 0q-114 0 -169.5 55t-55.5 152q0 30 6 65l60 356h105l-60 -357q-3 -21 -3 -38q0 -59 34 -91t98 -32h182l-18 -110h-179zM421 518q-6 -35 -23 -64t-41.5 -49.5t-55 -32t-63.5 -11.5l17 110q23 0 37 12t17 29l19 116h111z" />
    <glyph glyph-name="lcaron" unicode="&#x13e;" horiz-adv-x="518" 
d="M306 0q-114 0 -169.5 55t-55.5 152q0 30 6 65l60 356h105l-60 -357q-3 -21 -3 -38q0 -59 34 -91t98 -32h182l-18 -110h-179zM405 519q-6 -35 -23 -64t-41.5 -49.5t-55 -32t-63.5 -11.5l17 110q23 0 37 12t17 29l19 116h111z" />
    <glyph glyph-name="Lslash" unicode="&#x141;" horiz-adv-x="518" 
d="M88 416l36 212h104l-30 -183l68 20l11 -106l-98 -27l-11 -61q-2 -11 -2.5 -20t-0.5 -18q0 -59 34 -91t98 -32h182l-18 -110h-179q-113 0 -168.5 54t-55.5 151q0 31 6 67l5 30l-60 -16l-9 106z" />
    <glyph glyph-name="lslash" unicode="&#x142;" horiz-adv-x="518" 
d="M88 416l36 212h104l-30 -183l68 20l11 -106l-98 -27l-11 -61q-2 -11 -2.5 -20t-0.5 -18q0 -59 34 -91t98 -32h182l-18 -110h-179q-113 0 -168.5 54t-55.5 151q0 31 6 67l5 30l-60 -16l-9 106z" />
    <glyph glyph-name="Nacute" unicode="&#x143;" horiz-adv-x="685" 
d="M667 149q-6 -35 -22.5 -63.5t-40.5 -48.5t-54 -31t-63 -11q-46 0 -78 26t-39 72l-56 387q-3 39 -29 39q-21 0 -35 -13.5t-19 -41.5l-77 -464h-111l79 476q6 35 22.5 63.5t41 48.5t54.5 31t62 11q46 0 77.5 -26.5t38.5 -71.5l56 -387q3 -19 9.5 -29t20.5 -10q21 0 35 13.5
t19 41.5l78 467h111zM394 652l82 118h86l-117 -118h-51z" />
    <glyph glyph-name="nacute" unicode="&#x144;" horiz-adv-x="685" 
d="M667 150q-6 -35 -22.5 -63.5t-40.5 -48.5t-54 -31t-63 -11q-46 0 -78 26t-39 72l-56 386q-3 39 -29 39q-21 0 -35 -13.5t-19 -41.5l-77 -464h-111l79 476q6 35 22.5 63.5t41 48.5t54.5 31t62 11q46 0 78 -26t39 -72l55 -386q2 -19 9 -29t21 -10q45 0 54 55l78 466h111z
M373 652l82 118h86l-117 -118h-51z" />
    <glyph glyph-name="Ncommaaccent" unicode="&#x145;" horiz-adv-x="685" 
d="M667 149q-6 -35 -22.5 -63.5t-40.5 -48.5t-54 -31t-63 -11q-46 0 -78 26t-39 72l-56 387q-3 39 -29 39q-21 0 -35 -13.5t-19 -41.5l-77 -464h-111l79 476q6 35 22.5 63.5t41 48.5t54.5 31t62 11q46 0 77.5 -26.5t38.5 -71.5l56 -387q3 -19 9.5 -29t20.5 -10q21 0 35 13.5
t19 41.5l78 467h111zM212 -135h78q16 0 23.5 9.5t7.5 19.5q0 7 -5 12.5t-18 5.5h-78l17 103h59l-7 -40h28q36 0 53 -21t17 -50q0 -18 -6.5 -37t-19 -34t-31 -24.5t-43.5 -9.5h-86z" />
    <glyph glyph-name="ncommaaccent" unicode="&#x146;" horiz-adv-x="685" 
d="M667 150q-6 -35 -22.5 -63.5t-40.5 -48.5t-54 -31t-63 -11q-46 0 -78 26t-39 72l-56 386q-3 39 -29 39q-21 0 -35 -13.5t-19 -41.5l-77 -464h-111l79 476q6 35 22.5 63.5t41 48.5t54.5 31t62 11q46 0 78 -26t39 -72l55 -386q2 -19 9 -29t21 -10q45 0 54 55l78 466h111z
M221 -135h78q16 0 23.5 9.5t7.5 19.5q0 7 -5 12.5t-18 5.5h-78l17 103h59l-7 -40h28q36 0 53 -21t17 -50q0 -18 -6.5 -37t-19 -34t-31 -24.5t-43.5 -9.5h-86z" />
    <glyph glyph-name="Ncaron" unicode="&#x147;" horiz-adv-x="685" 
d="M667 149q-6 -35 -22.5 -63.5t-40.5 -48.5t-54 -31t-63 -11q-46 0 -78 26t-39 72l-56 387q-3 39 -29 39q-21 0 -35 -13.5t-19 -41.5l-77 -464h-111l79 476q6 35 22.5 63.5t41 48.5t54.5 31t62 11q46 0 77.5 -26.5t38.5 -71.5l56 -387q3 -19 9.5 -29t20.5 -10q21 0 35 13.5
t19 41.5l78 467h111zM534 771h77l-111 -117h-67l-77 117h79l39 -63z" />
    <glyph glyph-name="ncaron" unicode="&#x148;" horiz-adv-x="685" 
d="M667 150q-6 -35 -22.5 -63.5t-40.5 -48.5t-54 -31t-63 -11q-46 0 -78 26t-39 72l-56 386q-3 39 -29 39q-21 0 -35 -13.5t-19 -41.5l-77 -464h-111l79 476q6 35 22.5 63.5t41 48.5t54.5 31t62 11q46 0 78 -26t39 -72l55 -386q2 -19 9 -29t21 -10q45 0 54 55l78 466h111z
M526 771h77l-111 -117h-67l-77 117h79l39 -63z" />
    <glyph glyph-name="Omacron" unicode="&#x14c;" horiz-adv-x="657" 
d="M366 518q-71 0 -114.5 -50t-60.5 -156q-7 -38 -7 -72q0 -130 112 -130h101q38 0 71 17.5t57.5 52t38.5 86.5t14 121q0 131 -113 131h-99zM456 628q227 0 227 -221q0 -21 -2 -43.5t-6 -47.5v-3q-52 -313 -323 -313h-47q-228 0 -228 220q0 42 9 93v3q57 312 324 312h46z
M569 737l-13 -84h-228l13 84h228z" />
    <glyph glyph-name="omacron" unicode="&#x14d;" horiz-adv-x="657" 
d="M397 110q38 0 71 17.5t57.5 52t38.5 86.5t14 121q0 131 -113 131h-99q-71 0 -114.5 -50t-60.5 -156q-7 -38 -7 -72q0 -130 112 -130h101zM456 628q227 0 227 -221q0 -21 -2 -43.5t-6 -47.5v-3q-52 -313 -323 -313h-47q-228 0 -228 220q0 42 9 93v3q27 155 108 233.5
t216 78.5h46zM568 737l-13 -84h-228l13 84h228z" />
    <glyph glyph-name="Ohungarumlaut" unicode="&#x150;" horiz-adv-x="657" 
d="M366 518q-71 0 -114.5 -50t-60.5 -156q-7 -38 -7 -72q0 -130 112 -130h101q38 0 71 17.5t57.5 52t38.5 86.5t14 121q0 131 -113 131h-99zM456 628q227 0 227 -221q0 -21 -2 -43.5t-6 -47.5v-3q-52 -313 -323 -313h-47q-228 0 -228 220q0 42 9 93v3q57 312 324 312h46z
M420 773h85l-133 -120h-57zM534 773h87l-155 -120h-60z" />
    <glyph glyph-name="ohungarumlaut" unicode="&#x151;" horiz-adv-x="657" 
d="M397 110q38 0 71 17.5t57.5 52t38.5 86.5t14 121q0 131 -113 131h-99q-71 0 -114.5 -50t-60.5 -156q-7 -38 -7 -72q0 -130 112 -130h101zM456 628q227 0 227 -221q0 -21 -2 -43.5t-6 -47.5v-3q-52 -313 -323 -313h-47q-228 0 -228 220q0 42 9 93v3q27 155 108 233.5
t216 78.5h46zM423 773h85l-133 -120h-57zM537 773h87l-155 -120h-60z" />
    <glyph glyph-name="OE" unicode="&#x152;" horiz-adv-x="874" 
d="M351 110q32 0 62 18.5t52.5 55.5t36 92t13.5 128q0 58 -22.5 86t-73.5 28h-56q-68 0 -103.5 -50t-52.5 -156q-4 -21 -5.5 -39.5t-1.5 -35.5q0 -64 24.5 -95.5t69.5 -31.5h57zM914 518h-204q-16 0 -30.5 -7.5t-26 -19.5t-18 -28t-6.5 -33q0 -26 15 -42.5t42 -16.5h203
l-18 -110h-204q-17 0 -31.5 -8t-26 -20.5t-18 -29t-6.5 -33.5q0 -27 15 -43.5t42 -16.5h204l-19 -110h-188q-59 0 -92 18t-50 63q-21 -26 -41 -41t-42.5 -23.5t-48.5 -11.5t-58 -5h-5q-109 0 -159.5 50t-50.5 154q0 25 3 52.5t8 59.5q12 73 34.5 131t58.5 98t88 61.5
t124 21.5h2q64 0 101.5 -18t62.5 -64q31 47 71 64.5t99 17.5h188z" />
    <glyph glyph-name="oe" unicode="&#x153;" horiz-adv-x="874" 
d="M351 110q32 0 62 18.5t52.5 55.5t36 92t13.5 128q0 58 -22.5 86t-73.5 28h-56q-68 0 -103.5 -50t-52.5 -156q-4 -21 -5.5 -39.5t-1.5 -35.5q0 -64 24.5 -95.5t69.5 -31.5h57zM597 131q15 -21 45 -21h204l-19 -110h-188q-59 0 -92 18t-50 63q-21 -26 -41 -41t-42.5 -23.5
t-48.5 -11.5t-58 -5h-5q-110 0 -160 50.5t-50 153.5q0 24 3 51t8 57v4q13 73 35.5 131t58.5 98t87.5 61.5t123.5 21.5h2q64 0 101.5 -18t62.5 -64q31 47 71 64.5t99 17.5h188l-18 -110h-204q-16 0 -30.5 -7.5t-26 -19.5t-18 -28t-6.5 -33q0 -26 15 -42.5t42 -16.5h203
l-18 -110h-204q-17 0 -32 -8t-26 -21t-17.5 -29.5t-6.5 -33.5q0 -22 12 -38z" />
    <glyph glyph-name="Racute" unicode="&#x154;" horiz-adv-x="572" 
d="M75 188q15 90 73 136.5t145 46.5h125q15 0 30 7t26.5 18.5t18.5 27t7 33.5q0 25 -15.5 43t-40.5 18h-314l18 110h298q43 0 73 -11t49.5 -30.5t28.5 -46t9 -57.5q0 -36 -12.5 -75.5t-39 -72t-68.5 -53.5t-101 -21h-121l297 -149l-20 -122l-363 187l-30 -177h-104zM318 652
l82 118h86l-117 -118h-51z" />
    <glyph glyph-name="racute" unicode="&#x155;" 
d="M208 367h208q15 0 30 7.5t27 19.5t19 28t7 33q0 26 -15.5 44.5t-40.5 18.5h-209zM445 628q43 0 73 -11t49.5 -30.5t28.5 -46t9 -57.5q0 -36 -12.5 -75.5t-39 -72t-68.5 -53.5t-101 -21h-49l217 -142l-22 -132l-344 247l-39 -234h-104l104 628h298zM304 652l82 118h86
l-117 -118h-51z" />
    <glyph glyph-name="Rcommaaccent" unicode="&#x156;" horiz-adv-x="572" 
d="M75 188q15 90 73 136.5t145 46.5h125q15 0 30 7t26.5 18.5t18.5 27t7 33.5q0 25 -15.5 43t-40.5 18h-314l18 110h298q43 0 73 -11t49.5 -30.5t28.5 -46t9 -57.5q0 -36 -12.5 -75.5t-39 -72t-68.5 -53.5t-101 -21h-121l297 -149l-20 -122l-363 187l-30 -177h-104z
M168 -135h78q16 0 23.5 9.5t7.5 19.5q0 7 -5 12.5t-18 5.5h-78l17 103h59l-7 -40h28q36 0 53 -21t17 -50q0 -18 -6.5 -37t-19 -34t-31 -24.5t-43.5 -9.5h-86z" />
    <glyph glyph-name="rcommaaccent" unicode="&#x157;" 
d="M208 367h208q15 0 30 7.5t27 19.5t19 28t7 33q0 26 -15.5 44.5t-40.5 18.5h-209zM445 628q43 0 73 -11t49.5 -30.5t28.5 -46t9 -57.5q0 -36 -12.5 -75.5t-39 -72t-68.5 -53.5t-101 -21h-49l217 -142l-22 -132l-344 247l-39 -234h-104l104 628h298zM187 -135h78
q16 0 23.5 9.5t7.5 19.5q0 7 -5 12.5t-18 5.5h-78l17 103h59l-7 -40h28q36 0 53 -21t17 -50q0 -18 -6.5 -37t-19 -34t-31 -24.5t-43.5 -9.5h-86z" />
    <glyph glyph-name="Rcaron" unicode="&#x158;" horiz-adv-x="572" 
d="M75 188q15 90 73 136.5t145 46.5h125q15 0 30 7t26.5 18.5t18.5 27t7 33.5q0 25 -15.5 43t-40.5 18h-314l18 110h298q43 0 73 -11t49.5 -30.5t28.5 -46t9 -57.5q0 -36 -12.5 -75.5t-39 -72t-68.5 -53.5t-101 -21h-121l297 -149l-20 -122l-363 187l-30 -177h-104zM451 771
h77l-111 -117h-67l-77 117h79l39 -63z" />
    <glyph glyph-name="rcaron" unicode="&#x159;" 
d="M208 367h208q15 0 30 7.5t27 19.5t19 28t7 33q0 26 -15.5 44.5t-40.5 18.5h-209zM445 628q43 0 73 -11t49.5 -30.5t28.5 -46t9 -57.5q0 -36 -12.5 -75.5t-39 -72t-68.5 -53.5t-101 -21h-49l217 -142l-22 -132l-344 247l-39 -234h-104l104 628h298zM442 771h77l-111 -117
h-67l-77 117h79l39 -63z" />
    <glyph glyph-name="Sacute" unicode="&#x15a;" horiz-adv-x="593" 
d="M589 184q-15 -91 -72.5 -137.5t-146.5 -46.5h-306l18 110h326q15 0 29 7t25 19t17.5 28.5t6.5 34.5q0 26 -14 44t-39 18h-168q-45 0 -76 12.5t-49.5 33t-27 47t-8.5 54.5q0 43 14 83t42 70.5t69.5 48.5t96.5 18h297l-18 -110h-313q-16 0 -30.5 -7.5t-26 -19.5t-18 -28
t-6.5 -32q0 -26 15.5 -43t41.5 -17h165q76 0 118.5 -36t42.5 -105q0 -10 -1 -20.5t-3 -21.5zM364 652l82 118h86l-117 -118h-51z" />
    <glyph glyph-name="sacute" unicode="&#x15b;" horiz-adv-x="593" 
d="M292 518q-16 0 -30.5 -7.5t-26 -19.5t-18 -28t-6.5 -32q0 -26 15.5 -43t41.5 -17h165q76 0 118.5 -36t42.5 -105q0 -57 -17.5 -100.5t-47.5 -72t-71 -43t-88 -14.5h-306l18 110h326q15 0 29 7t25 19t17.5 28.5t6.5 34.5q0 26 -14 44t-39 18h-168q-45 0 -76 12.5t-49.5 33
t-27 47t-8.5 54.5q0 43 14 83t42 70.5t69.5 48.5t96.5 18h297l-18 -110h-313zM350 652l82 118h86l-117 -118h-51z" />
    <glyph glyph-name="Scommaaccent" unicode="&#x15e;" horiz-adv-x="593" 
d="M589 184q-15 -91 -72.5 -137.5t-146.5 -46.5h-306l18 110h326q15 0 29 7t25 19t17.5 28.5t6.5 34.5q0 26 -14 44t-39 18h-168q-45 0 -76 12.5t-49.5 33t-27 47t-8.5 54.5q0 43 14 83t42 70.5t69.5 48.5t96.5 18h297l-18 -110h-313q-16 0 -30.5 -7.5t-26 -19.5t-18 -28
t-6.5 -32q0 -26 15.5 -43t41.5 -17h165q76 0 118.5 -36t42.5 -105q0 -10 -1 -20.5t-3 -21.5zM187 -135h78q16 0 23.5 9.5t7.5 19.5q0 7 -5 12.5t-18 5.5h-78l17 103h59l-7 -40h28q36 0 53 -21t17 -50q0 -18 -6.5 -37t-19 -34t-31 -24.5t-43.5 -9.5h-86z" />
    <glyph glyph-name="scommaaccent" unicode="&#x15f;" horiz-adv-x="593" 
d="M292 518q-16 0 -30.5 -7.5t-26 -19.5t-18 -28t-6.5 -32q0 -26 15.5 -43t41.5 -17h165q76 0 118.5 -36t42.5 -105q0 -57 -17.5 -100.5t-47.5 -72t-71 -43t-88 -14.5h-306l18 110h326q15 0 29 7t25 19t17.5 28.5t6.5 34.5q0 26 -14 44t-39 18h-168q-45 0 -76 12.5t-49.5 33
t-27 47t-8.5 54.5q0 43 14 83t42 70.5t69.5 48.5t96.5 18h297l-18 -110h-313zM196 -135h78q16 0 23.5 9.5t7.5 19.5q0 7 -5 12.5t-18 5.5h-78l17 103h59l-7 -40h28q36 0 53 -21t17 -50q0 -18 -6.5 -37t-19 -34t-31 -24.5t-43.5 -9.5h-86z" />
    <glyph glyph-name="Scaron" unicode="&#x160;" horiz-adv-x="593" 
d="M589 184q-15 -91 -72.5 -137.5t-146.5 -46.5h-306l18 110h326q15 0 29 7t25 19t17.5 28.5t6.5 34.5q0 26 -14 44t-39 18h-168q-45 0 -76 12.5t-49.5 33t-27 47t-8.5 54.5q0 43 14 83t42 70.5t69.5 48.5t96.5 18h297l-18 -110h-313q-16 0 -30.5 -7.5t-26 -19.5t-18 -28
t-6.5 -32q0 -26 15.5 -43t41.5 -17h165q76 0 118.5 -36t42.5 -105q0 -10 -1 -20.5t-3 -21.5zM472 771h77l-111 -117h-67l-77 117h79l39 -63z" />
    <glyph glyph-name="scaron" unicode="&#x161;" horiz-adv-x="593" 
d="M292 518q-16 0 -30.5 -7.5t-26 -19.5t-18 -28t-6.5 -32q0 -26 15.5 -43t41.5 -17h165q76 0 118.5 -36t42.5 -105q0 -57 -17.5 -100.5t-47.5 -72t-71 -43t-88 -14.5h-306l18 110h326q15 0 29 7t25 19t17.5 28.5t6.5 34.5q0 26 -14 44t-39 18h-168q-45 0 -76 12.5t-49.5 33
t-27 47t-8.5 54.5q0 43 14 83t42 70.5t69.5 48.5t96.5 18h297l-18 -110h-313zM476 771h77l-111 -117h-67l-77 117h79l39 -63z" />
    <glyph glyph-name="Tcommaaccent" unicode="&#x162;" horiz-adv-x="438" 
d="M275 0h-104l86 518h-147l18 110h391l-18 -110h-139zM171 -135h78q16 0 23.5 9.5t7.5 19.5q0 7 -5 12.5t-18 5.5h-78l17 103h59l-7 -40h28q36 0 53 -21t17 -50q0 -18 -6.5 -37t-19 -34t-31 -24.5t-43.5 -9.5h-86z" />
    <glyph glyph-name="tcommaaccent" unicode="&#x163;" horiz-adv-x="438" 
d="M275 0h-104l86 518h-147l18 110h391l-18 -110h-139zM167 -135h78q16 0 23.5 9.5t7.5 19.5q0 7 -5 12.5t-18 5.5h-78l17 103h59l-7 -40h28q36 0 53 -21t17 -50q0 -18 -6.5 -37t-19 -34t-31 -24.5t-43.5 -9.5h-86z" />
    <glyph glyph-name="Tcaron" unicode="&#x164;" horiz-adv-x="438" 
d="M275 0h-104l86 518h-147l18 110h391l-18 -110h-139zM401 771h77l-111 -117h-67l-77 117h79l39 -63z" />
    <glyph glyph-name="tcaron" unicode="&#x165;" horiz-adv-x="573" 
d="M275 0h-104l86 518h-147l18 110h391l-18 -110h-139zM619 519q-6 -35 -23 -64t-41.5 -49.5t-55 -32t-63.5 -11.5l17 110q23 0 37 12t17 29l19 116h111z" />
    <glyph glyph-name="Umacron" unicode="&#x16a;" horiz-adv-x="587" 
d="M583 238q-9 -54 -31.5 -97.5t-58.5 -75t-86 -48.5t-113 -17q-108 0 -162 51.5t-54 136.5q0 26 4 49l65 391h105l-65 -389q-2 -6 -2 -12v-12q0 -47 33 -76t95 -29h3q71 0 112 36t52 93l64 389h105zM536 737l-13 -84h-228l13 84h228z" />
    <glyph glyph-name="umacron" unicode="&#x16b;" horiz-adv-x="587" 
d="M583 233q-9 -54 -32 -97.5t-59 -75t-85.5 -48.5t-112.5 -17q-109 0 -163 51.5t-54 136.5q0 26 4 49l66 396h105l-66 -394q-1 -6 -1.5 -12t-0.5 -11q0 -48 33 -77t96 -29h2q71 0 112.5 36t51.5 93l65 394h105zM533 737l-13 -84h-228l13 84h228z" />
    <glyph glyph-name="Uring" unicode="&#x16e;" horiz-adv-x="587" 
d="M583 238q-9 -54 -31.5 -97.5t-58.5 -75t-86 -48.5t-113 -17q-108 0 -162 51.5t-54 136.5q0 26 4 49l65 391h105l-65 -389q-2 -6 -2 -12v-12q0 -47 33 -76t95 -29h3q71 0 112 36t52 93l64 389h105zM422 750q-16 0 -27 -13t-11 -30q0 -27 26 -27q14 0 27 11t13 29
q0 13 -8 21.5t-20 8.5zM401 637q-26 0 -43.5 16.5t-17.5 43.5q0 21 7.5 38.5t19.5 30t27.5 20t32.5 7.5q29 0 45.5 -18.5t16.5 -46.5q0 -20 -7.5 -36.5t-19.5 -28.5t-28 -19t-33 -7z" />
    <glyph glyph-name="uring" unicode="&#x16f;" horiz-adv-x="587" 
d="M583 238q-9 -54 -31.5 -97.5t-58.5 -75t-86 -48.5t-113 -17q-108 0 -162 51.5t-54 136.5q0 26 4 49l65 391h105l-65 -389q-2 -6 -2 -12v-12q0 -47 33 -76t95 -29h3q71 0 112 36t52 93l64 389h105zM423 750q-16 0 -27 -13t-11 -30q0 -27 26 -27q14 0 27 11t13 29
q0 13 -8 21.5t-20 8.5zM402 637q-26 0 -43.5 16.5t-17.5 43.5q0 21 7.5 38.5t19.5 30t27.5 20t32.5 7.5q29 0 45.5 -18.5t16.5 -46.5q0 -20 -7.5 -36.5t-19.5 -28.5t-28 -19t-33 -7z" />
    <glyph glyph-name="Uhungarumlaut" unicode="&#x170;" horiz-adv-x="587" 
d="M583 238q-9 -54 -31.5 -97.5t-58.5 -75t-86 -48.5t-113 -17q-108 0 -162 51.5t-54 136.5q0 26 4 49l65 391h105l-65 -389q-2 -6 -2 -12v-12q0 -47 33 -76t95 -29h3q71 0 112 36t52 93l64 389h105zM402 773h85l-133 -120h-57zM516 773h87l-155 -120h-60z" />
    <glyph glyph-name="uhungarumlaut" unicode="&#x171;" horiz-adv-x="587" 
d="M583 233q-9 -54 -32 -97.5t-59 -75t-85.5 -48.5t-112.5 -17q-109 0 -163 51.5t-54 136.5q0 26 4 49l66 396h105l-66 -394q-1 -6 -1.5 -12t-0.5 -11q0 -48 33 -77t96 -29h2q71 0 112.5 36t51.5 93l65 394h105zM376 773h85l-133 -120h-57zM490 773h87l-155 -120h-60z" />
    <glyph glyph-name="Uogonek" unicode="&#x172;" horiz-adv-x="587" 
d="M583 238q-9 -54 -31.5 -97.5t-58.5 -75t-86 -48.5t-113 -17q-108 0 -162 51.5t-54 136.5q0 26 4 49l65 391h105l-65 -389q-2 -6 -2 -12v-12q0 -47 33 -76t95 -29h3q71 0 112 36t52 93l64 389h105zM211 -201q-38 0 -54.5 20.5t-16.5 48.5q0 12 6.5 29t22 37t41.5 41t65 40
h59q-38 -24 -62.5 -45.5t-38.5 -39t-20 -29t-6 -14.5q0 -8 5.5 -15t18.5 -7h78l-11 -66h-87z" />
    <glyph glyph-name="uogonek" unicode="&#x173;" horiz-adv-x="587" 
d="M583 233q-9 -54 -32 -97.5t-59 -75t-85.5 -48.5t-112.5 -17q-109 0 -163 51.5t-54 136.5q0 26 4 49l66 396h105l-66 -394q-1 -6 -1.5 -12t-0.5 -11q0 -48 33 -77t96 -29h2q71 0 112.5 36t51.5 93l65 394h105zM204 -201q-38 0 -54.5 20.5t-16.5 48.5q0 12 6.5 29t22 37
t41.5 41t65 40h59q-38 -24 -62.5 -45.5t-38.5 -39t-20 -29t-6 -14.5q0 -8 5.5 -15t18.5 -7h78l-11 -66h-87z" />
    <glyph glyph-name="Ydieresis" unicode="&#x178;" horiz-adv-x="576" 
d="M282 278l-162 350h125l106 -252l189 252h125l-277 -343l-48 -285h-104zM467 647q-21 0 -35 15.5t-14 37.5q0 15 6.5 27.5t16.5 21.5t22 14.5t24 5.5q22 0 34.5 -13.5t12.5 -35.5q0 -29 -19 -51t-48 -22zM323 647q-23 0 -36 14.5t-13 36.5q0 30 21.5 50.5t47.5 20.5
q21 0 34 -13.5t13 -34.5q0 -29 -19 -51.5t-48 -22.5z" />
    <glyph glyph-name="Zacute" unicode="&#x179;" horiz-adv-x="638" 
d="M536 438q17 7 29.5 21.5t12.5 29.5q0 12 -8 20.5t-26 8.5h-398l18 110h396q62 0 92.5 -30.5t30.5 -81.5q0 -16 -3 -32q-2 -12 -7 -30t-17.5 -38t-35 -40t-60.5 -36l-353 -150q-43 -18 -43 -52q0 -14 10 -21t25 -7h404l-18 -110h-402q-63 0 -93.5 30t-30.5 80q0 15 3.5 38
t16 48.5t36.5 49.5t66 42zM363 652l82 118h86l-117 -118h-51z" />
    <glyph glyph-name="zacute" unicode="&#x17a;" horiz-adv-x="638" 
d="M536 438q19 8 30.5 22.5t11.5 28.5q0 12 -8 20.5t-26 8.5h-398l18 110h396q62 0 92.5 -30.5t30.5 -81.5q0 -16 -3 -32q-2 -12 -7 -30t-17.5 -38t-35 -40t-60.5 -36l-353 -150q-17 -7 -27.5 -20.5t-10.5 -31.5q0 -28 30 -28h404l-18 -110h-402q-63 0 -93.5 30t-30.5 80
q0 15 3.5 38t16 48.5t36.5 49.5t66 42zM368 652l82 118h86l-117 -118h-51z" />
    <glyph glyph-name="Zdotaccent" unicode="&#x17b;" horiz-adv-x="638" 
d="M536 438q17 7 29.5 21.5t12.5 29.5q0 12 -8 20.5t-26 8.5h-398l18 110h396q62 0 92.5 -30.5t30.5 -81.5q0 -16 -3 -32q-2 -12 -7 -30t-17.5 -38t-35 -40t-60.5 -36l-353 -150q-43 -18 -43 -52q0 -14 10 -21t25 -7h404l-18 -110h-402q-63 0 -93.5 30t-30.5 80q0 15 3.5 38
t16 48.5t36.5 49.5t66 42zM425 652q-24 0 -36.5 15.5t-12.5 41.5q0 39 21.5 65.5t53.5 26.5q18 0 32 -17.5t14 -43.5q0 -18 -6.5 -34t-17 -28t-23.5 -19t-25 -7z" />
    <glyph glyph-name="zdotaccent" unicode="&#x17c;" horiz-adv-x="638" 
d="M536 438q19 8 30.5 22.5t11.5 28.5q0 12 -8 20.5t-26 8.5h-398l18 110h396q62 0 92.5 -30.5t30.5 -81.5q0 -16 -3 -32q-2 -12 -7 -30t-17.5 -38t-35 -40t-60.5 -36l-353 -150q-17 -7 -27.5 -20.5t-10.5 -31.5q0 -28 30 -28h404l-18 -110h-402q-63 0 -93.5 30t-30.5 80
q0 15 3.5 38t16 48.5t36.5 49.5t66 42zM431 652q-24 0 -36.5 15.5t-12.5 41.5q0 39 21.5 65.5t53.5 26.5q18 0 32 -17.5t14 -43.5q0 -18 -6.5 -34t-17 -28t-23.5 -19t-25 -7z" />
    <glyph glyph-name="Zcaron" unicode="&#x17d;" horiz-adv-x="638" 
d="M536 438q17 7 29.5 21.5t12.5 29.5q0 12 -8 20.5t-26 8.5h-398l18 110h396q62 0 92.5 -30.5t30.5 -81.5q0 -16 -3 -32q-2 -12 -7 -30t-17.5 -38t-35 -40t-60.5 -36l-353 -150q-43 -18 -43 -52q0 -14 10 -21t25 -7h404l-18 -110h-402q-63 0 -93.5 30t-30.5 80q0 15 3.5 38
t16 48.5t36.5 49.5t66 42zM496 771h77l-111 -117h-67l-77 117h79l39 -63z" />
    <glyph glyph-name="zcaron" unicode="&#x17e;" horiz-adv-x="638" 
d="M536 438q19 8 30.5 22.5t11.5 28.5q0 12 -8 20.5t-26 8.5h-398l18 110h396q62 0 92.5 -30.5t30.5 -81.5q0 -16 -3 -32q-2 -12 -7 -30t-17.5 -38t-35 -40t-60.5 -36l-353 -150q-17 -7 -27.5 -20.5t-10.5 -31.5q0 -28 30 -28h404l-18 -110h-402q-63 0 -93.5 30t-30.5 80
q0 15 3.5 38t16 48.5t36.5 49.5t66 42zM488 771h77l-111 -117h-67l-77 117h79l39 -63z" />
    <glyph glyph-name="circumflex" unicode="&#x2c6;" horiz-adv-x="277" 
d="M197 652h-78l114 117h66l77 -117h-80l-40 62z" />
    <glyph glyph-name="caron" unicode="&#x2c7;" horiz-adv-x="323" 
d="M337 771h77l-111 -117h-67l-77 117h79l39 -63z" />
    <glyph glyph-name="breve" unicode="&#x2d8;" horiz-adv-x="264" 
d="M240 650q-47 0 -67.5 27t-20.5 78v12h51q1 -29 12 -48t34 -19q22 0 38.5 19t27.5 48h56q-20 -57 -51 -87t-80 -30z" />
    <glyph glyph-name="dotaccent" unicode="&#x2d9;" horiz-adv-x="173" 
d="M192 652q-24 0 -36.5 15.5t-12.5 41.5q0 39 21.5 65.5t53.5 26.5q18 0 32 -17.5t14 -43.5q0 -18 -6.5 -34t-17 -28t-23.5 -19t-25 -7z" />
    <glyph glyph-name="ogonek" unicode="&#x2db;" horiz-adv-x="262" 
d="M88 -201q-38 0 -54.5 20.5t-16.5 48.5q0 12 6.5 29t22 37t41.5 41t65 40h59q-38 -24 -62.5 -45.5t-38.5 -39t-20 -29t-6 -14.5q0 -8 5.5 -15t18.5 -7h78l-11 -66h-87z" />
    <glyph glyph-name="tilde" unicode="&#x2dc;" horiz-adv-x="319" 
d="M132 674q48 68 98 68q9 0 20.5 -5.5t24.5 -12t25 -12t23 -5.5q28 0 50 40l31 -44q-7 -17 -18.5 -29t-24.5 -19t-26 -10t-22 -3q-14 0 -27 5t-25 11.5t-21 11.5t-14 5q-19 0 -57 -41z" />
    <glyph glyph-name="hungarumlaut" unicode="&#x2dd;" horiz-adv-x="294" 
d="M222 773h85l-133 -120h-57zM336 773h87l-155 -120h-60z" />
    <glyph glyph-name="endash" unicode="&#x2013;" horiz-adv-x="389" 
d="M96 372h319l-19 -112h-319z" />
    <glyph glyph-name="emdash" unicode="&#x2014;" horiz-adv-x="559" 
d="M96 372h490l-19 -112h-490z" />
    <glyph glyph-name="quoteleft" unicode="&#x2018;" horiz-adv-x="271" 
d="M247 463q-50 0 -77.5 31.5t-27.5 81.5q0 15 3 30l21 125h111l-16 -98q-1 -5 -1 -13q0 -36 37 -48l-18 -109h-32z" />
    <glyph glyph-name="quoteright" unicode="&#x2019;" horiz-adv-x="265" 
d="M300 602q-5 -30 -18 -56t-32.5 -45t-45 -30t-53.5 -11h-32l18 108q48 14 57 62l16 98h111z" />
    <glyph glyph-name="quotesinglbase" unicode="&#x201a;" horiz-adv-x="202" 
d="M192 11q-6 -35 -23 -64t-41.5 -49.5t-55 -32t-63.5 -11.5l17 110q23 0 37 12t17 29l19 116h111z" />
    <glyph glyph-name="quotedblleft" unicode="&#x201c;" horiz-adv-x="380" 
d="M118 574q6 34 23 63t40.5 50t51 32.5t54.5 11.5h14l-18 -110q-23 0 -36.5 -12t-16.5 -29l-20 -116h-111zM298 574q6 34 23 63t40 50t51 32.5t55 11.5h15l-18 -110q-24 0 -37.5 -12t-16.5 -29l-20 -116h-111z" />
    <glyph glyph-name="quotedblright" unicode="&#x201d;" horiz-adv-x="380" 
d="M462 621q-6 -34 -22.5 -62.5t-40 -49.5t-51.5 -33t-56 -12h-15l19 110q24 0 37.5 12t16.5 29l19 116h111zM281 621q-6 -34 -22.5 -62.5t-40 -49.5t-51.5 -33t-56 -12h-14l19 110q23 0 36.5 12t16.5 29l19 116h111z" />
    <glyph glyph-name="quotedblbase" unicode="&#x201e;" horiz-adv-x="417" 
d="M379 11q-6 -35 -23 -64t-41.5 -49.5t-55 -32t-63.5 -11.5l17 110q23 0 37 12t17 29l19 116h111zM192 11q-6 -35 -23 -64t-41.5 -49.5t-55 -32t-63.5 -11.5l17 110q23 0 37 12t17 29l19 116h111z" />
    <glyph glyph-name="bullet" unicode="&#x2022;" horiz-adv-x="415" 
d="M449 472l-54 -320h-324l54 320h324z" />
    <glyph glyph-name="ellipsis" unicode="&#x2026;" horiz-adv-x="678" 
d="M308 111h111l-18 -111h-111zM540 111h111l-18 -111h-111zM71 111h111l-18 -111h-111z" />
    <glyph glyph-name="guilsinglleft" unicode="&#x2039;" horiz-adv-x="266" 
d="M260 265l-11 -72l-146 84l11 67l174 87l-13 -74l-101 -46z" />
    <glyph glyph-name="guilsinglright" unicode="&#x203a;" horiz-adv-x="266" 
d="M117 359l11 72l147 -84l-12 -67l-174 -87l13 74l100 46z" />
    <glyph glyph-name="Euro" unicode="&#x20ac;" horiz-adv-x="538" 
d="M220 285h196l-57 -99h-138q13 -37 38.5 -56.5t71.5 -19.5h170l-18 -110h-144q-209 0 -227 186h-46l18 99h32l10 61h-32l16 98h48q38 91 110.5 137.5t176.5 46.5h164l-62 -110h-147q-43 0 -78 -19.5t-55 -54.5h238l-55 -98h-219z" />
    <glyph glyph-name="trademark" unicode="&#x2122;" horiz-adv-x="580" 
d="M222 261h-75l37 223h-67l12 74h208l-12 -74h-66zM466 262h-14l-28 124l-21 -124h-69l50 297h69l30 -148l77 148h68l-49 -298h-70l20 123z" />
    <glyph glyph-name="uniE000" horiz-adv-x="191" 
d="M222 750q-16 0 -27 -13t-11 -30q0 -27 26 -27q14 0 27 11t13 29q0 13 -8 21.5t-20 8.5zM201 637q-26 0 -43.5 16.5t-17.5 43.5q0 21 7.5 38.5t19.5 30t27.5 20t32.5 7.5q29 0 45.5 -18.5t16.5 -46.5q0 -20 -7.5 -36.5t-19.5 -28.5t-28 -19t-33 -7z" />
    </font>
</defs>
</svg>
