<link rel="stylesheet" href="style.css">
<?xml version="1.0" encoding="UTF-8" standalone="no"?>
<svg
   xmlns:dc="http://purl.org/dc/elements/1.1/"
   xmlns:cc="http://creativecommons.org/ns#"
   xmlns:rdf="http://www.w3.org/1999/02/22-rdf-syntax-ns#"
   xmlns:svg="http://www.w3.org/2000/svg"
   xmlns="http://www.w3.org/2000/svg"
   xmlns:sodipodi="http://sodipodi.sourceforge.net/DTD/sodipodi-0.dtd"
   xmlns:inkscape="http://www.inkscape.org/namespaces/inkscape"
   width="179.99899"
   height="29.441"
   viewBox="0 0 47.624735 7.7895972"
   version="1.1"
   id="svg2608"
   sodipodi:docname="vivoseg.svg"
   inkscape:version="1.0.1 (3bc2e813f5, 2020-09-07)">
  <defs
     id="defs2602" />
  <sodipodi:namedview
     id="base"
     pagecolor="#ffffff"
     bordercolor="#666666"
     borderopacity="1.0"
     inkscape:pageopacity="0.0"
     inkscape:pageshadow="2"
     inkscape:zoom="1.9934986"
     inkscape:cx="183.38538"
     inkscape:cy="36.942682"
     inkscape:document-units="mm"
     inkscape:current-layer="layer1"
     inkscape:document-rotation="0"
     showgrid="false"
     units="px"
     inkscape:window-width="1920"
     inkscape:window-height="1017"
     inkscape:window-x="-8"
     inkscape:window-y="-8"
     inkscape:window-maximized="1" />
  <metadata
     id="metadata2605">
    <rdf:RDF>
      <cc:Work
         rdf:about="">
        <dc:format>image/svg+xml</dc:format>
        <dc:type
           rdf:resource="http://purl.org/dc/dcmitype/StillImage" />
        <dc:title></dc:title>
      </cc:Work>
    </rdf:RDF>
  </metadata>
  <g
     inkscape:label="Capa 1"
     inkscape:groupmode="layer"
     id="layer1">
    <g
       id="g3248"
       transform="matrix(0.68267994,0,0,0.68267994,0.72253059,0.72246977)">
      <g
         id="g2536"
         transform="matrix(0.87995736,0,0,0.87995736,365.26807,674.25208)">
        <path
           id="path2528"
           style="opacity:1;fill:#ffffff;fill-opacity:1;fill-rule:evenodd;stroke:#e70015;stroke-width:0;stroke-linecap:round;stroke-linejoin:bevel;stroke-opacity:0"
           d="m -1540.7461,-2900.543 a 23.098149,28.855513 64.956546 0 0 -14.0293,3.0742 23.098149,28.855513 64.956546 0 0 -17.0488,32.9688 23.098149,28.855513 64.956546 0 0 35.5996,9.3438 23.098149,28.855513 64.956546 0 0 17.0488,-32.9688 23.098149,28.855513 64.956546 0 0 -21.5703,-12.418 z m 1.8965,12.7032 a 15.954313,19.799041 63.860206 0 1 14.6641,8.5937 15.954313,19.799041 63.860206 0 1 -11.6739,22.8184 15.954313,19.799041 63.860206 0 1 -24.3789,-6.4668 15.954313,19.799041 63.860206 0 1 11.6738,-22.8184 15.954313,19.799041 63.860206 0 1 9.7149,-2.1269 z"
           transform="scale(0.26458333)" />
        <path
           style="opacity:1;fill:#ffffff;fill-opacity:1;fill-rule:evenodd;stroke:#e70015;stroke-width:0;stroke-linecap:round;stroke-linejoin:bevel;stroke-opacity:0"
           d="m -1538.5137,-2880.6797 a 11.370701,13.817685 59.33089 0 1 10.3985,6.1777 11.370701,13.817685 59.33089 0 1 -8.0782,16.4024 11.370701,13.817685 59.33089 0 1 -16.8691,-4.6504 11.370701,13.817685 59.33089 0 1 8.0781,-16.4023 11.370701,13.817685 59.33089 0 1 6.4707,-1.5274 z"
           transform="scale(0.26458333)"
           id="path2551" />
      </g>
      <text
         xml:space="preserve"
         style="font-style:normal;font-variant:normal;font-weight:normal;font-stretch:normal;font-size:15.875px;line-height:1.25;font-family:'Eras Bold ITC';-inkscape-font-specification:'Eras Bold ITC, Normal';font-variant-ligatures:normal;font-variant-caps:normal;font-variant-numeric:normal;font-variant-east-asian:normal;fill:#ffffff;stroke-width:0.26459"
         x="11.555224"
         y="10.29277"
         id="text2566"><tspan
           sodipodi:role="line"
           id="tspan2564"
           x="11.555224"
           y="10.29277"
           style="font-style:italic;font-variant:normal;font-weight:normal;font-stretch:normal;font-size:14.8167px;font-family:Nasalization;-inkscape-font-specification:'Nasalization Italic';font-variant-ligatures:normal;font-variant-caps:normal;font-variant-numeric:normal;font-variant-east-asian:normal;fill:#ffffff;stroke-width:0.26459">VIVOSEG</tspan></text>
    </g>
  </g>
</svg>
